<svg width="74" height="60" viewBox="0 0 74 60" fill="none" xmlns="http://www.w3.org/2000/svg">
<g clip-path="url(#clip0_137_2)">
<path d="M67.6171 53.4866L67.7282 50.7888C68.8862 50.1202 70.1778 49.7671 71.4908 49.76C69.6837 51.3559 69.9095 54.432 68.6843 56.578C68.2975 57.2442 67.7768 57.8078 67.1608 58.227C66.5449 58.6462 65.8495 58.9104 65.1262 58.9999L63.614 60C63.4064 58.7505 63.4522 57.4673 63.7481 56.2387C64.0439 55.0102 64.5828 53.8655 65.3277 52.8835C65.7506 52.3372 66.2355 51.8505 66.7711 51.435C67.1333 52.4665 67.6171 53.4866 67.6171 53.4866Z" fill="#F2F2F2"/>
<path d="M15.6994 29.5028C15.5995 29.4043 15.5208 29.2833 15.4688 29.1484C15.4169 29.0135 15.3929 28.8679 15.3987 28.722C15.4044 28.576 15.4398 28.4331 15.5022 28.3035C15.5646 28.1739 15.6525 28.0606 15.7598 27.9716L14.7238 24.6008L16.374 25.0797L17.1049 28.2072C17.2313 28.4119 17.2838 28.6595 17.2524 28.9031C17.2211 29.1468 17.1081 29.3696 16.9349 29.5293C16.7616 29.689 16.5402 29.7745 16.3125 29.7696C16.0848 29.7647 15.8666 29.6698 15.6994 29.5028Z" fill="#A0616A"/>
<path d="M18.6903 11.1887C18.9641 11.3582 20.5841 10.9381 20.9005 11.0576C20.7259 12.2086 21.6745 11.7767 20.6444 13.2883C19.6143 14.7999 17.5395 19.332 17.0682 21.0258C16.5969 22.7197 17.0634 25.1068 16.9928 25.9096C16.9587 26.3747 16.9608 26.8421 16.9991 27.3069C16.4426 27.2993 15.894 27.424 15.3288 27.3443C14.726 25.502 14.3207 22.8796 14.0455 21.4302C13.7702 19.9809 13.7602 20.5938 13.8864 19.8691C14.0126 19.1444 14.0432 19.671 13.9106 18.9777C13.778 18.2844 14.3142 17.4133 14.8097 16.9167C15.0234 16.253 15.2995 15.6341 15.511 14.9774C17.0609 13.517 17.1628 12.6734 18.6903 11.1887Z" fill="#39035A"/>
<path d="M63.7206 58.1306H62.3513L61.6999 52.4258H63.7209L63.7206 58.1306Z" fill="#FFB6B6"/>
<path d="M64.0698 59.5643L59.6546 59.5642V59.5038C59.6546 59.0116 59.8357 58.5394 60.158 58.1913C60.4803 57.8432 60.9174 57.6477 61.3731 57.6476L62.1797 56.9868L63.6845 57.6477L64.0699 57.6478L64.0698 59.5643Z" fill="#2F2E41"/>
<path d="M57.359 58.1306H55.9897L55.3383 52.4258H57.3592L57.359 58.1306Z" fill="#FFB6B6"/>
<path d="M57.7082 59.5643L53.293 59.5642V59.5038C53.293 59.0116 53.4741 58.5394 53.7963 58.1913C54.1186 57.8432 54.5557 57.6477 55.0115 57.6476L55.8181 56.9868L57.3229 57.6477L57.7083 57.6478L57.7082 59.5643Z" fill="#2F2E41"/>
<path d="M56.7663 26.9419L65.673 27.1824C67.3645 28.1748 67.3902 30.3227 66.836 32.8728C66.836 32.8728 67.0231 34.3886 66.6489 34.7927C66.2747 35.1969 66.0875 35.1969 66.2747 35.9043C66.4618 36.6116 65.4732 37.7669 65.5933 37.8966C65.7133 38.0263 65.994 38.7336 65.994 38.7336L65.0585 44.4934C65.0585 44.4934 64.4036 54.4972 64.2165 54.6993C64.0294 54.9014 63.8423 54.6993 64.0294 55.2046C64.2165 55.7098 64.4036 55.5077 64.2165 55.7098C64.0507 55.9028 63.8946 56.1052 63.7487 56.3161H61.4869C61.4869 56.3161 61.3163 55.3056 61.3163 55.2046C61.3163 55.1035 61.1292 54.4972 61.1292 54.3962C61.1292 54.2951 61.2946 54.1165 61.2946 54.1165C61.3517 53.9111 61.3904 53.7002 61.4099 53.4867C61.4099 53.2847 61.9712 45.5039 61.9712 45.5039L60.8486 35.399L58.1355 45.3018C58.1355 45.3018 58.1355 53.992 57.9484 54.1941C57.7613 54.3962 57.7613 54.2951 57.8549 54.6993C57.9484 55.1035 58.3226 55.0025 58.042 55.3056C57.7613 55.6088 57.6678 55.1035 57.7613 55.6088L57.8549 56.114L55.0483 56.1574C55.0483 56.1574 54.674 55.3056 54.8612 55.0025C55.0483 54.6993 55.037 54.7821 54.8088 54.286C54.5805 53.7899 54.4869 53.6888 54.5805 53.5878C54.674 53.4867 54.674 52.9493 54.674 52.9493L55.1418 43.2808C55.1418 43.2808 55.2354 33.0749 55.2354 32.7718C55.2424 32.6158 55.2158 32.4602 55.1577 32.3172V31.9057L55.516 30.4476L56.7663 26.9419Z" fill="#2F2E41"/>
<path d="M62.1167 6.93804C63.645 6.93804 64.884 5.59979 64.884 3.94897C64.884 2.29815 63.645 0.9599 62.1167 0.9599C60.5883 0.9599 59.3493 2.29815 59.3493 3.94897C59.3493 5.59979 60.5883 6.93804 62.1167 6.93804Z" fill="#FFB6B6"/>
<path d="M60.733 8.9136C60.1368 9.29643 59.7801 9.99984 59.5754 10.7156C59.1964 12.0408 58.9682 13.4109 58.896 14.7957L58.6798 18.9415L56.0017 27.769C58.3227 29.8902 67.047 28.2511 67.047 28.2511C67.047 28.2511 67.3148 28.1547 67.047 27.8654C66.7792 27.5761 66.5185 27.8324 66.7863 27.5431C67.0541 27.2539 66.8695 27.5761 66.7802 27.2869C66.691 26.9976 66.7802 27.1904 66.8695 27.094C66.9588 26.9976 66.1784 26.1298 66.1784 26.1298L66.8926 21.0627L67.7853 10.842C66.714 9.3957 64.5596 8.5431 64.5596 8.5431L64.003 7.46082L61.2196 7.70132L60.733 8.9136Z" fill="#3F3D56"/>
<path d="M60.3534 2.19475C60.4605 2.19566 60.5671 2.21076 60.6707 2.23973C60.8751 2.2928 61.0827 2.33039 61.2919 2.35223C61.9325 2.41733 62.5345 2.71244 63.0016 3.19042C63.4688 3.6684 63.7742 4.30168 63.869 4.98912C64.0298 4.83768 64.3957 4.55913 64.6957 4.81801C64.7002 4.82212 64.7029 4.82424 64.7134 4.81884C64.9126 4.71679 65.2662 3.46058 65.2769 2.35452C65.2825 1.76746 65.197 1.01782 64.7574 0.780426L64.7343 0.767919L64.7282 0.740731C64.6988 0.608676 64.3707 0.38326 63.8004 0.207813C62.7641 -0.111023 61.2498 -0.157117 60.3799 0.756939C60.314 1.06509 60.0693 1.14952 59.853 1.22427C59.6134 1.30701 59.4065 1.3784 59.3739 1.69583C59.3466 2.14755 59.3486 2.60078 59.3798 3.0522C59.461 2.77597 59.6203 2.5342 59.8354 2.36092C59.9883 2.24972 60.1691 2.19174 60.3534 2.19475Z" fill="#2F2E41"/>
<path d="M55.2026 18.7107L59.7231 15.5837L57.4462 12.3146L55.198 15.3017L48.193 15.7657C48.0088 15.569 47.7755 15.4344 47.5217 15.3784C47.2679 15.3224 47.0045 15.3474 46.7635 15.4503C46.5226 15.5532 46.3147 15.7296 46.165 15.958C46.0153 16.1864 45.9303 16.4569 45.9205 16.7365C45.9106 17.0161 45.9763 17.2928 46.1096 17.5328C46.2428 17.7728 46.4378 17.9657 46.6708 18.088C46.9038 18.2104 47.1647 18.2569 47.4217 18.2218C47.6787 18.1868 47.9208 18.0717 48.1183 17.8907L55.2026 18.7107Z" fill="#FFB6B6"/>
<path d="M63.9187 11.219C64.1811 12.934 59.2265 16.209 59.2265 16.209C59.2264 15.8064 56.2693 18.8453 56.1358 18.5115C55.7564 17.5626 55.4897 15.3153 54.9596 14.9556C54.6564 14.7499 56.7854 12.8174 56.7854 12.8174C56.7854 12.8174 57.8998 11.6048 59.3622 10.0752C59.7682 9.63453 60.2709 9.31195 60.8233 9.13751C61.3758 8.96308 61.9602 8.94246 62.5221 9.07759C62.5221 9.07759 63.6563 9.504 63.9187 11.219Z" fill="#3F3D56"/>
<path d="M58.8816 30.9102C58.8836 32.7455 58.599 34.5681 58.0399 36.3012C58.0143 36.3818 57.9876 36.4611 57.9609 36.5417C56.8164 39.8989 54.6877 42.7602 51.8988 44.6901C51.7084 44.8223 51.5158 44.9486 51.3199 45.0713C49.0917 46.4664 46.5694 47.2208 43.9941 47.2623C43.9095 47.2635 43.8249 47.2647 43.7403 47.2647C43.6312 47.2647 43.5232 47.2635 43.4152 47.2611C40.8365 47.2057 38.3141 46.4364 36.0895 45.0268C35.8935 44.9029 35.7005 44.7742 35.5105 44.6408C32.4142 42.4727 30.1565 39.159 29.1609 35.3212C28.1654 31.4833 28.5004 27.385 30.1031 23.7948C30.1387 23.7143 30.1754 23.6349 30.2133 23.5543C31.4755 20.8487 33.4085 18.5747 35.7969 16.9859C38.1853 15.3971 40.9353 14.5558 43.7403 14.5558C46.5453 14.5558 49.2952 15.3971 51.6836 16.9859C54.072 18.5747 56.005 20.8487 57.2673 23.5543C57.3051 23.6349 57.3419 23.7143 57.3775 23.7948C58.3708 26.0132 58.8851 28.4461 58.8816 30.9102Z" fill="#F2F2F2"/>
<path d="M54.1967 36.3012V36.5417H55.5528V36.3012H54.1967ZM51.4846 36.3012V36.5417H52.8407V36.3012H51.4846ZM48.7726 36.3012V36.5417H50.1286V36.3012H48.7726ZM46.0605 36.3012V36.5417H47.4165V36.3012H46.0605ZM43.3484 36.3012V36.5417H44.7044V36.3012H43.3484ZM40.6363 36.3012V36.5417H41.9923V36.3012H40.6363ZM37.9242 36.3012V36.5417H39.2803V36.3012H37.9242ZM35.2133 36.3012V36.5417H36.5682V36.3012H35.2133ZM32.5012 36.3012V36.5417H33.8572V36.3012H32.5012ZM29.7891 36.3012V36.5417H31.1451V36.3012H29.7891ZM58.04 36.3012H56.9088V36.5417H57.9609L58.04 36.3012Z" fill="#E6E6E6"/>
<path d="M56.9088 34.6176V34.8581H58.2648V34.6176H56.9088ZM54.1967 34.6176V34.8581H55.5528V34.6176H54.1967ZM51.4846 34.6176V34.8581H52.8407V34.6176H51.4846ZM48.7726 34.6176V34.8581H50.1286V34.6176H48.7726ZM46.0605 34.6176V34.8581H47.4165V34.6176H46.0605ZM43.3484 34.6176V34.8581H44.7044V34.6176H43.3484ZM40.6363 34.6176V34.8581H41.9924V34.6176H40.6363ZM37.9242 34.6176V34.8581H39.2803V34.6176H37.9242ZM35.2133 34.6176V34.8581H36.5682V34.6176H35.2133ZM32.5012 34.6176V34.8581H33.8572V34.6176H32.5012ZM29.7891 34.6176V34.8581H31.1451V34.6176H29.7891Z" fill="#E6E6E6"/>
<path d="M56.9088 31.1303V31.3708H58.2648V31.1303H56.9088ZM54.1967 31.1303V31.3708H55.5528V31.1303H54.1967ZM51.4846 31.1303V31.3708H52.8407V31.1303H51.4846ZM48.7726 31.1303V31.3708H50.1286V31.1303H48.7726ZM46.0605 31.1303V31.3708H47.4165V31.1303H46.0605ZM43.3484 31.1303V31.3708H44.7044V31.1303H43.3484ZM40.6363 31.1303V31.3708H41.9924V31.1303H40.6363ZM37.9242 31.1303V31.3708H39.2803V31.1303H37.9242ZM35.2133 31.1303V31.3708H36.5682V31.1303H35.2133ZM32.5012 31.1303V31.3708H33.8572V31.1303H32.5012ZM29.7891 31.1303V31.3708H31.1451V31.1303H29.7891Z" fill="#E6E6E6"/>
<path d="M56.9088 28.7252V28.9657H58.2648V28.7252H56.9088ZM54.1967 28.7252V28.9657H55.5528V28.7252H54.1967ZM51.4846 28.7252V28.9657H52.8407V28.7252H51.4846ZM48.7726 28.7252V28.9657H50.1286V28.7252H48.7726ZM46.0605 28.7252V28.9657H47.4165V28.7252H46.0605ZM43.3484 28.7252V28.9657H44.7044V28.7252H43.3484ZM40.6363 28.7252V28.9657H41.9924V28.7252H40.6363ZM37.9242 28.7252V28.9657H39.2803V28.7252H37.9242ZM35.2133 28.7252V28.9657H36.5682V28.7252H35.2133ZM32.5012 28.7252V28.9657H33.8572V28.7252H32.5012ZM29.7891 28.7252V28.9657H31.1451V28.7252H29.7891Z" fill="#E6E6E6"/>
<path d="M57.2673 23.5543H56.9088V23.7948H57.3775C57.3419 23.7143 57.3051 23.6349 57.2673 23.5543ZM54.1967 23.5543V23.7948H55.5528V23.5543H54.1967ZM51.4846 23.5543V23.7948H52.8407V23.5543H51.4846ZM48.7725 23.5543V23.7948H50.1286V23.5543H48.7725ZM46.0605 23.5543V23.7948H47.4165V23.5543H46.0605ZM43.3484 23.5543V23.7948H44.7044V23.5543H43.3484ZM40.6363 23.5543V23.7948H41.9923V23.5543H40.6363ZM37.9242 23.5543V23.7948H39.2803V23.5543H37.9242ZM35.2133 23.5543V23.7948H36.5682V23.5543H35.2133ZM32.5012 23.5543V23.7948H33.8572V23.5543H32.5012ZM30.2133 23.5543C30.1754 23.6349 30.1387 23.7143 30.103 23.7948H31.1451V23.5543H30.2133Z" fill="#E6E6E6"/>
<path d="M51.8988 24.3649V44.6901C51.7084 44.8224 51.5158 44.9486 51.3199 45.0713V24.3649H51.8988Z" fill="#3F3D56"/>
<path d="M43.9941 31.0991V47.2623C43.9095 47.2635 43.8249 47.2647 43.7403 47.2647C43.6312 47.2647 43.5232 47.2635 43.4152 47.2611V31.0991H43.9941Z" fill="#3F3D56"/>
<path d="M36.0894 24.3649V45.0268C35.8935 44.9029 35.7005 44.7743 35.5105 44.6408V24.3649H36.0894Z" fill="#3F3D56"/>
<path d="M7.72136 52.0289L7.50053 48.7113C6.05392 47.9302 4.45266 47.5424 2.83578 47.5814C5.11051 49.4806 4.92831 53.2763 6.50368 55.874C7.00077 56.6802 7.65944 57.3552 8.43088 57.849C9.20232 58.3428 10.0667 58.6427 10.9601 58.7267L12.8532 59.903C13.0698 58.357 12.9735 56.7787 12.5709 55.2768C12.1684 53.7749 11.4691 52.3851 10.5214 51.2032C9.98368 50.5458 9.37143 49.9642 8.69913 49.4721C8.28534 50.7553 7.72136 52.0289 7.72136 52.0289Z" fill="#F2F2F2"/>
<path d="M51.5336 25.9798C52.7019 25.9798 53.649 24.9569 53.649 23.695C53.649 22.4332 52.7019 21.4102 51.5336 21.4102C50.3654 21.4102 49.4183 22.4332 49.4183 23.695C49.4183 24.9569 50.3654 25.9798 51.5336 25.9798Z" fill="#39035A"/>
<path d="M52.6195 22.7428C52.5877 22.71 52.5454 22.6917 52.5014 22.6917C52.4574 22.6917 52.4152 22.71 52.3833 22.7428C51.9345 23.1294 51.5313 23.5742 51.183 24.0671C51.0974 23.8884 51.0119 23.7096 50.9264 23.5309C50.8277 23.3246 50.5393 23.5068 50.638 23.713C50.7631 23.9744 50.8882 24.2359 51.0133 24.4973C51.0284 24.524 51.0495 24.546 51.0748 24.5613C51.1 24.5767 51.1285 24.5847 51.1575 24.5847C51.1864 24.5847 51.2149 24.5767 51.2401 24.5613C51.2654 24.546 51.2866 24.524 51.3017 24.4973C51.6729 23.9325 52.1166 23.4277 52.6195 22.9979C52.6506 22.9639 52.668 22.9181 52.668 22.8703C52.668 22.8226 52.6506 22.7768 52.6195 22.7428Z" fill="white"/>
<path d="M43.7403 32.714C44.9086 32.714 45.8556 31.6911 45.8556 30.4292C45.8556 29.1674 44.9086 28.1444 43.7403 28.1444C42.572 28.1444 41.625 29.1674 41.625 30.4292C41.625 31.6911 42.572 32.714 43.7403 32.714Z" fill="#39035A"/>
<path d="M44.8262 29.477C44.7943 29.4442 44.7521 29.4259 44.7081 29.4259C44.6641 29.4259 44.6218 29.4442 44.59 29.477C44.1411 29.8636 43.738 30.3084 43.3896 30.8013C43.3041 30.6226 43.2186 30.4438 43.133 30.2651C43.0343 30.0588 42.746 30.241 42.8446 30.4472C42.9697 30.7086 43.0948 30.97 43.2199 31.2315C43.235 31.2582 43.2562 31.2802 43.2815 31.2955C43.3067 31.3108 43.3352 31.3189 43.3641 31.3189C43.3931 31.3189 43.4216 31.3108 43.4468 31.2955C43.4721 31.2802 43.4932 31.2582 43.5083 31.2315C43.8796 30.6667 44.3233 30.1619 44.8262 29.7321C44.8572 29.6981 44.8747 29.6523 44.8747 29.6045C44.8747 29.5568 44.8572 29.511 44.8262 29.477Z" fill="white"/>
<path d="M35.8356 26.4609C37.0039 26.4609 37.9509 25.4379 37.9509 24.176C37.9509 22.9142 37.0039 21.8912 35.8356 21.8912C34.6673 21.8912 33.7203 22.9142 33.7203 24.176C33.7203 25.4379 34.6673 26.4609 35.8356 26.4609Z" fill="#39035A"/>
<path d="M36.9215 23.2238C36.8897 23.191 36.8474 23.1727 36.8034 23.1727C36.7594 23.1727 36.7171 23.191 36.6853 23.2238C36.2365 23.6105 35.8333 24.0552 35.4849 24.5481C35.3994 24.3694 35.3139 24.1906 35.2284 24.0119C35.1296 23.8056 34.8413 23.9878 34.94 24.194C35.0651 24.4554 35.1902 24.7169 35.3153 24.9783C35.3303 25.005 35.3515 25.0271 35.3768 25.0424C35.402 25.0577 35.4305 25.0657 35.4595 25.0657C35.4884 25.0657 35.5169 25.0577 35.5421 25.0424C35.5674 25.0271 35.5886 25.005 35.6037 24.9783C35.9749 24.4136 36.4186 23.9087 36.9215 23.4789C36.9526 23.4449 36.97 23.3991 36.97 23.3514C36.97 23.3036 36.9526 23.2578 36.9215 23.2238Z" fill="white"/>
<path d="M66.1714 22.5513L67.564 16.9516L63.8427 16.1907L64.0428 20.0343L59.1533 25.4722C58.8945 25.4608 58.6381 25.531 58.4155 25.6742C58.193 25.8174 58.0138 26.0275 57.8998 26.2788C57.7859 26.5301 57.7421 26.8117 57.7738 27.0895C57.8055 27.3672 57.9113 27.6289 58.0784 27.8428C58.2454 28.0567 58.4665 28.2135 58.7146 28.294C58.9627 28.3745 59.2272 28.3753 59.4757 28.2963C59.7242 28.2173 59.9461 28.0619 60.1143 27.8491C60.2824 27.6362 60.3896 27.3751 60.4228 27.0976L66.1714 22.5513Z" fill="#FFB6B6"/>
<path d="M67.9448 10.6732C69.208 11.7503 67.5867 17.7751 67.5867 17.7751C67.3357 17.4775 67.044 21.875 66.7372 21.7253C65.8652 21.2997 64.267 19.8322 63.6508 19.9518C63.2984 20.0203 63.6676 17.0431 63.6676 17.0431C63.6676 17.0431 63.7355 15.3361 63.8631 13.1417C63.8885 12.5206 64.059 11.9165 64.3588 11.3857C64.6585 10.8549 65.0776 10.4146 65.5773 10.1059C65.5773 10.1059 66.6817 9.59614 67.9448 10.6732Z" fill="#3F3D56"/>
<path d="M24.3162 23.2451L25.8472 30.6246L16.0367 29.9654L18.7045 22.718L24.3162 23.2451Z" fill="#A0616A"/>
<path d="M22.6826 57.3042L23.7846 57.3041L24.3089 52.713H22.6824L22.6826 57.3042Z" fill="#A0616A"/>
<path d="M22.3094 56.717L24.0515 56.6047V57.4109L25.7077 58.6463C25.7895 58.7074 25.8511 58.795 25.8835 58.8965C25.916 58.998 25.9175 59.1081 25.8879 59.2106C25.8583 59.3131 25.7992 59.4027 25.7191 59.4664C25.639 59.53 25.5422 59.5643 25.4428 59.5643H23.3688L23.0113 58.7669L22.8717 59.5643H22.0898L22.3094 56.717Z" fill="#2F2E41"/>
<path d="M12.2669 56.712L13.344 56.9643L14.7575 52.5975L13.168 52.2251L12.2669 56.712Z" fill="#A0616A"/>
<path d="M12.0175 56.0527L13.7421 56.3419L13.5838 57.1297L14.9599 58.7164C15.0279 58.7947 15.0709 58.8945 15.0826 59.0011C15.0944 59.1078 15.0743 59.2157 15.0253 59.3091C14.9762 59.4025 14.9008 59.4765 14.8101 59.5204C14.7193 59.5642 14.618 59.5756 14.5208 59.5528L12.494 59.0779L12.3011 58.2167L12.0082 58.9641L11.244 58.785L12.0175 56.0527Z" fill="#2F2E41"/>
<path d="M26.0977 36.7954C25.3243 41.3865 25.1309 43.3687 25.1309 43.3687C25.1309 43.3687 25.711 44.0991 25.3243 44.5168C24.9376 44.9345 25.3243 45.7687 25.3243 45.7687L24.4547 55.89L23.7548 55.7675L22.0686 55.4747L21.4605 55.3685L21.8472 45.8737C21.8472 45.8737 21.4605 45.0383 21.6538 44.8295C21.8472 44.6206 21.4605 43.3687 21.4605 43.3687L20.9776 33.4563L17.9823 44.308C17.9823 44.308 18.2728 44.7256 17.9823 45.0383C17.6928 45.351 17.1138 46.9168 17.1138 46.9168L15.3326 53.6487L15.1814 54.2204L14.2524 54.0326L13.2414 53.8272L13.0556 53.7899L12.7251 53.7222L12.5123 53.6791L12.4399 53.6651L12.0899 53.5939L12.1958 53.0864L12.2509 52.8192L13.7577 45.5902L13.7923 45.4233L13.829 45.2472C13.829 45.2472 13.6356 44.7257 13.9251 44.4118C14.0098 44.3162 14.0717 44.1997 14.1054 44.0724C14.1391 43.9452 14.1436 43.811 14.1185 43.6814C14.109 43.6705 14.1003 43.6588 14.0926 43.6464C14.0584 43.5957 14.0348 43.5376 14.0234 43.4761C13.9975 43.3454 14.0202 43.1622 14.2157 42.9511C14.2708 42.8879 14.317 42.8163 14.3529 42.7387C14.6467 42.1379 14.7947 40.865 14.7947 40.865C14.7947 40.865 15.0561 30.7833 15.9116 29.2433C15.957 29.1627 16.8651 27.6173 16.9127 27.5857C17.8783 26.9604 25.4019 27.8242 25.4019 27.8242C25.4019 27.8242 25.8576 29.1464 25.8781 29.2841C25.9894 30.0576 26.7533 32.9009 26.0977 36.7954Z" fill="#2F2E41"/>
<path d="M23.8116 12.5115C23.8116 12.5115 23.9744 11.5988 22.4101 9.90912C21.5819 9.61095 20.147 9.78474 19.6496 9.90912C17.3491 13.189 17.761 12.6103 17.1622 14.4429C17.0069 14.9181 16.9293 15.3746 16.9983 15.7473C17.2743 17.2382 17.7225 24.8911 17.6305 25.2886C17.5385 25.6862 16.8944 26.1831 17.5385 26.1831C18.1826 26.1831 26.4891 26.0261 26.3051 25.7279C26.1211 25.4298 23.8116 12.5115 23.8116 12.5115Z" fill="#39035A"/>
<path d="M33.6768 24.6385C33.5507 24.6912 33.4154 24.7135 33.2804 24.7036C33.1454 24.6938 33.0141 24.6521 32.8957 24.5815C32.7772 24.5109 32.6746 24.4131 32.5949 24.2951C32.5152 24.177 32.4605 24.0414 32.4346 23.898L29.179 23.3986L30.311 22.016L33.229 22.7023C33.4549 22.6712 33.6835 22.7307 33.8716 22.8695C34.0596 23.0083 34.1939 23.2168 34.2491 23.4555C34.3043 23.6942 34.2766 23.9464 34.1711 24.1644C34.0656 24.3825 33.8898 24.5511 33.6768 24.6385Z" fill="#A0616A"/>
<path d="M19.9034 11.924C20.1659 11.7347 20.464 11.6458 20.704 11.3931C21.5803 12.0746 21.6448 10.9649 22.4389 12.6343C23.2331 14.3038 26.0657 18.3288 27.2598 19.5391C28.454 20.7493 30.6405 21.3614 31.2745 21.7873C31.6448 22.0274 32.0332 22.2336 32.4355 22.4035C32.1813 22.9383 32.0404 23.5244 31.7226 24.0355C29.9269 23.7979 27.5727 23.0218 26.2487 22.6424C24.9248 22.263 25.4283 22.5457 24.8838 22.1009C24.3393 21.656 24.7895 21.861 24.1557 21.6804C23.522 21.4999 23.0388 20.5933 22.8478 19.8929C22.3928 19.3907 22.0028 18.848 21.5526 18.351C21.0324 16.2017 20.4537 14.0625 19.9034 11.924Z" fill="#39035A"/>
<path d="M21.959 8.63697C23.4306 8.63697 24.6236 7.34845 24.6236 5.75898C24.6236 4.1695 23.4306 2.88098 21.959 2.88098C20.4875 2.88098 19.2945 4.1695 19.2945 5.75898C19.2945 7.34845 20.4875 8.63697 21.959 8.63697Z" fill="#A0616A"/>
<path d="M23.7393 11.0198C23.613 10.825 22.6687 8.89335 22.388 8.16286C22.3592 8.32105 22.3409 8.48129 22.3335 8.64232L22.3307 8.70233L22.2756 8.71005C22.1926 8.72149 20.2329 8.97841 19.213 7.7293C18.6087 6.98941 18.4717 5.8796 18.8052 4.43007C18.7445 4.41721 18.6864 4.39303 18.6334 4.35862C18.5452 4.29269 18.4714 4.20678 18.4171 4.10687C18.3628 4.00696 18.3294 3.89546 18.3191 3.78014L18.2626 3.7965C16.4482 2.84285 18.0114 0.0531073 19.6686 1.44011C19.814 1.40503 19.9655 1.41443 20.1062 1.46727C20.2419 1.5269 20.3601 1.62506 20.4484 1.75137C20.5366 1.87767 20.5915 2.02741 20.6074 2.1847C21.4637 1.69822 22.5969 1.77738 23.183 2.14238C23.4284 2.29523 23.5694 2.48773 23.5944 2.70248C24.2867 2.74423 25.0313 3.47262 25.0313 4.5046V4.57646H24.9647C24.6862 4.58286 24.4145 4.67097 24.1788 4.83134C23.9431 4.99172 23.7522 5.21832 23.6266 5.48688C23.4564 5.81911 23.3721 6.19473 23.3827 6.57427C23.3933 6.95382 23.4983 7.32328 23.6868 7.64382C23.8919 7.98382 24.0319 8.36472 24.0987 8.76408C24.1654 9.16345 24.1575 9.57319 24.0753 9.96919L23.8253 11.1525L23.7393 11.0198Z" fill="#2F2E41"/>
<path d="M31.4706 59.5881C31.4707 59.6069 31.4673 59.6255 31.4606 59.6429C31.454 59.6603 31.4442 59.6761 31.4319 59.6894C31.4196 59.7027 31.405 59.7132 31.3889 59.7204C31.3728 59.7276 31.3555 59.7312 31.3381 59.7312H0.132487C0.0973494 59.7312 0.0636504 59.7161 0.0388043 59.6893C0.0139582 59.6624 0 59.626 0 59.5881C0 59.5501 0.0139582 59.5137 0.0388043 59.4869C0.0636504 59.4601 0.0973494 59.445 0.132487 59.445H31.3381C31.3556 59.4449 31.3728 59.4486 31.3889 59.4558C31.405 59.4629 31.4196 59.4735 31.4319 59.4868C31.4442 59.5001 31.454 59.5159 31.4606 59.5333C31.4673 59.5506 31.4707 59.5693 31.4706 59.5881Z" fill="#CCCCCC"/>
<path d="M74 59.5881C74.0001 59.6069 73.9967 59.6255 73.99 59.6429C73.9834 59.6603 73.9736 59.6761 73.9613 59.6894C73.949 59.7027 73.9344 59.7132 73.9183 59.7204C73.9022 59.7276 73.8849 59.7312 73.8675 59.7312H42.6619C42.6267 59.7312 42.593 59.7161 42.5682 59.6893C42.5433 59.6624 42.5294 59.626 42.5294 59.5881C42.5294 59.5501 42.5433 59.5137 42.5682 59.4869C42.593 59.4601 42.6267 59.445 42.6619 59.445H73.8675C73.8849 59.4449 73.9022 59.4486 73.9183 59.4558C73.9344 59.4629 73.949 59.4735 73.9613 59.4868C73.9736 59.5001 73.9834 59.5159 73.99 59.5333C73.9967 59.5506 74.0001 59.5693 74 59.5881Z" fill="#CCCCCC"/>
<path d="M35.7699 49.2749C36.421 49.2749 36.9489 48.7047 36.9489 48.0014C36.9489 47.298 36.421 46.7278 35.7699 46.7278C35.1187 46.7278 34.5908 47.298 34.5908 48.0014C34.5908 48.7047 35.1187 49.2749 35.7699 49.2749Z" fill="#E6E6E6"/>
<path d="M43.6745 50.5977C44.3257 50.5977 44.8536 50.0275 44.8536 49.3241C44.8536 48.6208 44.3257 48.0506 43.6745 48.0506C43.0233 48.0506 42.4955 48.6208 42.4955 49.3241C42.4955 50.0275 43.0233 50.5977 43.6745 50.5977Z" fill="#E6E6E6"/>
<path d="M51.5792 49.0344C52.2304 49.0344 52.7583 48.4642 52.7583 47.7609C52.7583 47.0575 52.2304 46.4873 51.5792 46.4873C50.928 46.4873 50.4001 47.0575 50.4001 47.7609C50.4001 48.4642 50.928 49.0344 51.5792 49.0344Z" fill="#E6E6E6"/>
</g>
<defs>
<clipPath id="clip0_137_2">
<rect width="74" height="60" fill="white"/>
</clipPath>
</defs>
</svg>
