<svg width="280" height="236" viewBox="0 0 280 236" fill="none" xmlns="http://www.w3.org/2000/svg">
<g clip-path="url(#clip0_68_210)">
<path d="M203.934 43.8496C203.9 53.0114 203.177 62.1617 201.769 71.2437C201.719 71.5626 201.666 71.8816 201.616 72.2005H101.499C101.203 71.8854 100.911 71.5665 100.629 71.2437C99.6871 70.1754 98.8038 69.0765 97.9922 67.939C94.0911 62.4595 92.2796 56.0308 94.0239 51.581L94.0552 51.5118C94.4316 50.5375 95.029 49.6364 95.8129 48.8604C99.8305 44.9409 108.009 45.5519 115.448 48.6644C108.754 42.4548 103.404 34.6043 102.956 27.5761C102.516 20.7209 106.668 15.8023 111.179 11.6177C111.327 11.4794 111.475 11.3449 111.623 11.2104C111.695 11.1412 111.771 11.0759 111.843 11.0067C115.363 7.81735 119.47 4.67025 125.447 5.01995C132.003 5.40421 139.298 10.073 144.428 15.5295C149.558 20.9822 152.983 27.188 156.454 33.244C159.929 39.2961 163.686 45.502 169.233 50.6626C161.714 42.6046 155.633 33.4246 153.351 24.479C151.069 15.5334 152.97 6.92204 159.597 2.6721C161.609 1.42134 163.942 0.601773 166.399 0.28199C166.686 0.239721 166.978 0.205138 167.274 0.174397C173.43 -0.455774 180.797 1.33487 187.084 5.66935C194.007 10.4419 198.832 17.5431 201.253 24.2945C203.674 31.046 203.97 37.5554 203.934 43.8496Z" fill="#F2F2F2"/>
<path d="M138.617 72.2005H136.702C136.092 71.8777 135.479 71.5588 134.864 71.2437C134.483 71.04 134.097 70.844 133.711 70.6442C127.34 67.3511 120.929 64.1937 114.48 61.1721C108.036 58.148 101.561 55.2647 95.0551 52.5224C94.8827 52.459 94.7416 52.3459 94.6564 52.2027C94.5712 52.0595 94.5473 51.8953 94.5887 51.7385C94.5956 51.7179 94.6062 51.6985 94.6203 51.6809C94.7098 51.5348 94.9117 51.4734 95.2077 51.5963C96.0057 51.9345 96.8084 52.2726 97.6064 52.6185C104.131 55.4082 110.628 58.3388 117.098 61.4104C123.564 64.4806 129.994 67.6879 136.388 71.0323C136.523 71.1015 136.657 71.1745 136.792 71.2437C137.401 71.5626 138.007 71.8815 138.617 72.2005Z" fill="white"/>
<path d="M163.301 72.2005H162.117C161.848 71.8816 161.583 71.5626 161.314 71.2437C154.992 63.7352 148.671 56.2267 142.352 48.7182C132.003 36.4257 121.657 24.1331 111.314 11.8406C111.253 11.7744 111.207 11.6987 111.179 11.6177C111.09 11.3449 111.323 11.1835 111.623 11.2104C111.75 11.2253 111.872 11.2631 111.98 11.3214C112.088 11.3797 112.181 11.4572 112.251 11.5485C118.053 18.4422 123.854 25.3333 129.653 32.2218C139.948 44.4529 150.242 56.6827 160.534 68.9112C161.189 69.6874 161.844 70.4675 162.498 71.2437C162.767 71.5626 163.036 71.8816 163.301 72.2005Z" fill="white"/>
<path d="M189.635 66.1829C189.586 67.8929 189.465 69.576 189.303 71.2437C189.272 71.5626 189.24 71.8815 189.209 72.2005H187.967C188.003 71.8816 188.039 71.5626 188.07 71.2437C188.317 68.8343 188.487 66.3981 188.496 63.8966C188.484 56.9613 187.65 50.0449 186.008 43.254C184.261 35.9419 181.775 28.7739 178.578 21.8314C175.221 14.5091 171.187 7.4288 166.511 0.658511C166.424 0.548219 166.384 0.414858 166.399 0.281935C166.449 -0.0216322 166.919 -0.113855 167.274 0.174342C167.344 0.230884 167.404 0.295558 167.453 0.366473C168.031 1.20801 168.599 2.0521 169.157 2.89876C173.662 9.70758 177.525 16.8133 180.712 24.1485C183.747 31.1146 186.068 38.2942 187.649 45.6057C189.129 52.3887 189.794 59.2837 189.635 66.1829Z" fill="white"/>
<path d="M276.086 71.2437H3.90988C2.87318 71.2445 1.87922 71.5978 1.14618 72.226C0.413136 72.8542 0.000910634 73.706 0 74.5944V232.649C0.000909448 233.538 0.413136 234.389 1.14618 235.018C1.87922 235.646 2.87318 235.999 3.90988 236H276.086C276.651 236 277.209 235.895 277.723 235.692C278.236 235.489 278.692 235.193 279.059 234.824C279.09 234.795 279.118 234.764 279.144 234.732C279.377 234.487 279.566 234.214 279.704 233.921C279.901 233.518 280.002 233.086 280 232.649V74.5944C279.999 73.7054 279.586 72.8531 278.852 72.2248C278.118 71.5965 277.123 71.2436 276.086 71.2437ZM278.884 232.649C278.884 233.117 278.723 233.574 278.422 233.963C278.154 234.306 277.79 234.586 277.363 234.778C276.968 234.953 276.53 235.044 276.086 235.043H3.90988C3.16927 235.042 2.45925 234.79 1.93556 234.341C1.41188 233.892 1.11727 233.284 1.11638 232.649V74.5944C1.11727 73.9598 1.41188 73.3513 1.93556 72.9025C2.45925 72.4537 3.16927 72.2012 3.90988 72.2005H276.086C276.827 72.2004 277.538 72.4525 278.063 72.9013C278.587 73.3502 278.883 73.9591 278.884 74.5944V232.649Z" fill="#3F3D56"/>
<path d="M279.439 84.6733H0.55719V85.6312H279.439V84.6733Z" fill="#3F3D56"/>
<path d="M10.0582 81.3016C11.9102 81.3016 13.4115 80.015 13.4115 78.4279C13.4115 76.8408 11.9102 75.5542 10.0582 75.5542C8.20622 75.5542 6.7049 76.8408 6.7049 78.4279C6.7049 80.015 8.20622 81.3016 10.0582 81.3016Z" fill="#3F3D56"/>
<path d="M19.6989 81.3016C21.5509 81.3016 23.0522 80.015 23.0522 78.4279C23.0522 76.8408 21.5509 75.5542 19.6989 75.5542C17.8469 75.5542 16.3456 76.8408 16.3456 78.4279C16.3456 80.015 17.8469 81.3016 19.6989 81.3016Z" fill="#3F3D56"/>
<path d="M29.3396 81.3016C31.1916 81.3016 32.6929 80.015 32.6929 78.4279C32.6929 76.8408 31.1916 75.5542 29.3396 75.5542C27.4877 75.5542 25.9863 76.8408 25.9863 78.4279C25.9863 80.015 27.4877 81.3016 29.3396 81.3016Z" fill="#3F3D56"/>
<path d="M124.195 166.106C120.841 164.236 119.173 159.888 119.995 155.911C120.817 151.935 123.911 148.51 127.621 147.033C129.426 146.336 131.404 146.034 133.379 146.155C135.353 146.275 137.262 146.814 138.933 147.722C142.335 149.505 147.146 150.482 148.762 154.048C150.004 156.789 148.429 162.355 146.758 165.017C145.314 167.318 142.569 168.371 139.991 168.828C137.139 169.327 134.194 169.294 131.358 168.734C128.521 168.173 125.858 167.096 123.549 165.577L124.195 166.106Z" fill="#2F2E41"/>
<path d="M122.446 187.226L119.764 191.187L119.41 191.71L118.895 192.479H110.989L111.523 191.71L112.904 189.716L116.124 185.058L119.769 186.307L122.446 187.226Z" fill="#FFB8B8"/>
<path d="M110.398 192.478L108.954 191.71L108.774 191.614L117.836 177.461C118.226 176.849 118.754 176.309 119.389 175.872C120.024 175.435 120.753 175.111 121.536 174.918C122.523 174.666 123.569 174.633 124.576 174.822C125.163 174.928 125.728 175.109 126.253 175.36C126.469 175.461 126.677 175.574 126.876 175.698C127.642 176.158 128.272 176.766 128.714 177.473C129.241 178.3 129.501 179.233 129.468 180.175C129.435 181.117 129.11 182.035 128.526 182.833L125.033 187.618L122.047 191.71L121.486 192.478H110.398Z" fill="#2F2E41"/>
<path d="M133.68 171.129C139.762 171.129 144.693 166.904 144.693 161.692C144.693 156.479 139.762 152.254 133.68 152.254C127.598 152.254 122.667 156.479 122.667 161.692C122.667 166.904 127.598 171.129 133.68 171.129Z" fill="#FFB8B8"/>
<path d="M144.736 192.478H119.98L120.092 192.206C120.029 192.04 119.971 191.875 119.917 191.71C119.859 191.537 119.809 191.36 119.765 191.187C119.362 189.579 119.364 187.915 119.769 186.307C121.137 180.551 126.594 175.874 126.594 175.874C126.688 175.813 126.782 175.755 126.876 175.698C127.688 175.188 128.569 174.765 129.499 174.437C133.553 172.996 137.803 173.577 140.66 174.322C141.654 174.58 142.627 174.897 143.57 175.271C143.901 175.406 144.081 175.49 144.081 175.49L144.363 182.872L144.704 191.71L144.736 192.478Z" fill="#370E4A"/>
<path d="M156.188 191.71L154.295 183.464L152.385 175.148C152.306 174.805 152.107 174.49 151.815 174.245C151.523 174 151.151 173.837 150.748 173.776L146.749 173.185L143.027 172.635C142.668 172.58 142.298 172.609 141.958 172.721C141.617 172.833 141.319 173.022 141.095 173.269C140.815 173.568 140.662 173.939 140.66 174.322C140.66 174.559 140.716 174.793 140.826 175.01C142.767 178.891 142.803 185.035 142.31 191.71C142.287 191.964 142.269 192.221 142.247 192.478H156.367L156.188 191.71Z" fill="#2F2E41"/>
<path d="M129.499 174.437C129.417 174.158 129.255 173.9 129.027 173.687C128.8 173.475 128.514 173.314 128.196 173.219C127.878 173.125 127.538 173.1 127.206 173.146C126.874 173.192 126.56 173.308 126.293 173.484L124.576 174.822L117.545 180.309C117.326 180.477 117.154 180.686 117.043 180.92C116.249 182.545 114.702 185.754 112.904 189.716C112.613 190.361 112.312 191.026 112.003 191.71C111.895 191.963 111.779 192.221 111.662 192.478H123.249C123.343 192.221 123.437 191.963 123.531 191.71C124.047 190.315 124.549 188.947 125.033 187.617C126.45 183.756 127.728 180.247 128.715 177.473C128.988 176.704 129.238 175.995 129.463 175.344C129.569 175.05 129.581 174.737 129.499 174.437Z" fill="#2F2E41"/>
<path d="M158.788 192.479H159.537L159.434 192.263L159.16 191.71L154.941 183.129L154.295 183.464L149.112 186.15L151.771 191.71L152.139 192.479H156.367H158.788Z" fill="#FFB8B8"/>
<path d="M154.511 176.324C153.94 175.043 152.813 174.002 151.367 173.417C149.92 172.831 148.265 172.748 146.749 173.185C146.555 173.24 146.365 173.304 146.179 173.377C145.117 173.783 144.212 174.44 143.57 175.271C143.308 175.603 143.092 175.96 142.929 176.336C142.638 176.987 142.5 177.681 142.524 178.378C142.548 179.075 142.733 179.762 143.068 180.397L144.363 182.872L149 191.71L149.403 192.478H158.788L159.434 192.263L161.111 191.71L161.344 191.633L154.511 176.324Z" fill="#2F2E41"/>
<path d="M142.33 150.852C142.713 150.951 143.125 150.938 143.499 150.816C143.874 150.694 144.191 150.47 144.402 150.178C144.602 149.88 144.719 149.547 144.746 149.205C144.772 148.862 144.706 148.519 144.554 148.202C144.241 147.568 143.749 147.011 143.121 146.582C142.408 146.029 141.54 145.644 140.602 145.464C140.133 145.378 139.649 145.379 139.18 145.467C138.712 145.555 138.271 145.729 137.888 145.976C137.512 146.231 137.233 146.576 137.087 146.968C136.941 147.36 136.935 147.78 137.069 148.175C137.355 148.883 138.127 149.358 138.898 149.712C140.429 150.412 142.116 150.823 143.848 150.918L142.33 150.852Z" fill="#2F2E41"/>
<path d="M144.472 161.41C142.701 161.619 142.929 160.846 142.22 159.44C141.511 158.035 140.561 156.365 138.782 156.223C137.323 156.106 136.122 157.106 134.94 157.847C132.835 159.17 129.997 159.817 127.556 159.024C125.115 158.23 123.418 155.737 124.344 153.646C124.633 153.068 125.056 152.547 125.589 152.116C126.122 151.684 126.752 151.351 127.441 151.137C128.824 150.715 130.292 150.541 131.756 150.623C135.012 150.712 138.206 151.413 141.111 152.675C143.117 153.548 145.069 154.798 145.83 156.612C146.59 158.426 147.091 160.975 144.916 161.466L144.472 161.41Z" fill="#2F2E41"/>
<path d="M141.425 145.863C140.549 144.557 141.272 142.766 142.704 141.894C144.136 141.021 146.057 140.936 147.765 141.286C149.455 141.65 151.004 142.39 152.255 143.429C153.506 144.468 154.417 145.771 154.895 147.208C155.62 149.491 155.189 151.943 155.803 154.249C156.13 155.479 156.748 156.638 157.618 157.656C158.488 158.673 159.591 159.527 160.861 160.165C162.13 160.803 163.539 161.212 165 161.366C166.46 161.52 167.942 161.416 169.355 161.061C171.194 160.598 173.063 159.472 173.244 157.837C173.434 159.715 172.935 161.597 171.815 163.22C170.695 164.842 169.011 166.124 166.999 166.886C164.629 167.733 161.986 167.788 159.419 167.732C157.746 167.695 156.035 167.609 154.492 167.054C153.424 166.637 152.464 166.041 151.669 165.302C150.873 164.563 150.258 163.695 149.858 162.749C149.073 160.848 148.861 158.808 149.242 156.818C149.494 155.27 149.997 153.753 150.137 152.194C150.278 150.636 150.011 148.972 148.89 147.739C147.769 146.506 145.628 145.877 144.034 146.636C143.393 146.942 142.876 147.44 142.18 147.638C141.484 147.835 140.498 147.488 140.561 146.862L141.425 145.863Z" fill="#2F2E41"/>
<path d="M216.577 192.478L216.663 191.71L219.192 169.161C220.021 168.605 220.911 168.12 221.851 167.713C227.056 165.465 232.079 166.541 234.796 167.471C235.516 167.712 236.212 168.004 236.876 168.343L238.356 191.71L238.405 192.478H216.577Z" fill="#370E4A"/>
<path d="M228.421 163.16C234.503 163.16 239.434 158.935 239.434 153.722C239.434 148.51 234.503 144.284 228.421 144.284C222.338 144.284 217.408 148.51 217.408 153.722C217.408 158.935 222.338 163.16 228.421 163.16Z" fill="#FFB8B8"/>
<path d="M237.356 159.477C238.175 158.738 238.718 157.806 238.918 156.802C239.117 155.797 238.963 154.764 238.475 153.834C237.987 152.905 237.188 152.121 236.179 151.581C235.17 151.042 233.996 150.773 232.807 150.807C231.285 150.85 229.85 151.384 228.396 151.776C226.193 152.418 223.843 152.6 221.542 152.305C219.228 151.997 217.139 150.94 215.706 149.352C214.343 147.747 213.918 145.521 214.881 143.716C215.992 141.632 218.588 140.483 221.03 139.55C222.015 139.128 223.067 138.832 224.152 138.671C224.696 138.594 225.252 138.614 225.787 138.729C226.321 138.845 226.822 139.053 227.258 139.342C227.944 139.848 228.346 140.608 229.093 141.047C229.934 141.54 231.026 141.527 232.039 141.614C234.323 141.81 236.483 142.597 238.232 143.871C239.981 145.144 241.236 146.844 241.83 148.743C242.424 150.643 242.329 152.653 241.558 154.505C240.787 156.358 239.376 157.965 237.513 159.113L237.356 159.477Z" fill="#2F2E41"/>
<path d="M223.492 171.617L221.851 167.713L221.748 167.469C221.7 167.354 221.621 167.25 221.518 167.164C221.416 167.079 221.292 167.014 221.156 166.976C221.02 166.937 220.876 166.926 220.734 166.943C220.592 166.959 220.456 167.003 220.337 167.071L218.474 168.135C218.474 168.135 206.524 168.135 205.565 174.28C205.551 174.376 205.533 174.483 205.52 174.599C205.519 174.604 205.518 174.609 205.515 174.614C205.394 175.018 203.139 182.488 201.202 191.71C201.148 191.964 201.094 192.221 201.041 192.478H227.007C227.852 183.214 227.379 174.601 223.492 171.617Z" fill="#2F2E41"/>
<path d="M254.467 191.71C253.05 182.249 251.023 174.599 251.023 174.599C251.005 174.483 250.987 174.376 250.974 174.28C250.019 168.135 238.069 168.135 238.069 168.135L236.207 167.072C236.088 167.003 235.952 166.96 235.81 166.943C235.668 166.927 235.524 166.938 235.388 166.976C235.252 167.015 235.128 167.079 235.025 167.165C234.923 167.251 234.844 167.355 234.796 167.471L233.051 171.617C229.164 174.601 228.691 183.214 229.536 192.478L254.579 192.478C254.543 192.221 254.503 191.963 254.467 191.71Z" fill="#2F2E41"/>
<path d="M44.1336 170.168L41.4702 191.71L41.376 192.478H34.1704C34.2556 192.229 34.3408 191.971 34.4305 191.71C36.4753 185.7 39.2598 176.927 38.9592 174.603C38.4884 170.975 41.7842 169.765 41.7842 169.765L41.9904 169.799L44.1336 170.168Z" fill="#370E4A"/>
<path d="M55.7546 163.519C61.8369 163.519 66.7676 159.294 66.7676 154.081C66.7676 148.869 61.8369 144.643 55.7546 144.643C49.6723 144.643 44.7415 148.869 44.7415 154.081C44.7415 159.294 49.6723 163.519 55.7546 163.519Z" fill="#A0616A"/>
<path d="M70.0105 187.906C69.4552 188.783 69.0002 189.705 68.6519 190.657C68.5219 190.995 68.3964 191.349 68.2797 191.71C68.1946 191.96 68.1184 192.217 68.0422 192.478H38.995C39.0355 192.225 39.0712 191.967 39.1117 191.71C40.5959 181.661 41.7975 171.463 41.9904 169.799C42.0083 169.642 42.0173 169.561 42.0173 169.561C59.4239 161.699 72.127 171.982 72.127 171.982C72.127 171.982 72.1449 172.055 72.1719 172.197C72.4499 173.634 73.8667 182.027 70.0105 187.906Z" fill="#370E4A"/>
<path d="M68.652 190.657L66.715 187.099L67.1857 172.989L72.1719 172.197L72.3468 172.17C74.9241 173.454 76.9185 175.448 78.0054 177.826C78.974 179.902 80.8168 186.142 82.3729 191.71C82.4447 191.967 82.5163 192.225 82.5881 192.478H69.6429L69.2258 191.71L68.652 190.657Z" fill="#370E4A"/>
<path d="M86.3681 129.075H22.6871C21.3212 129.077 20.0117 129.542 19.0458 130.37C18.08 131.198 17.5366 132.32 17.5349 133.49V188.063C17.5366 189.234 18.08 190.356 19.0458 191.184C20.0117 192.011 21.3212 192.477 22.6871 192.478H86.3681C87.7343 192.478 89.0442 192.012 90.0102 191.184C90.9761 190.357 91.5192 189.234 91.5201 188.063V133.49C91.5192 132.32 90.9761 131.197 90.0102 130.369C89.0442 129.541 87.7343 129.076 86.3681 129.075ZM90.6233 188.063C90.6224 189.03 90.1738 189.957 89.376 190.641C88.5782 191.325 87.4964 191.709 86.3681 191.71H22.6871C21.559 191.708 20.4777 191.324 19.68 190.64C18.8824 189.957 18.4335 189.03 18.4317 188.063V133.49C18.4335 132.524 18.8824 131.597 19.68 130.913C20.4777 130.23 21.559 129.845 22.6871 129.844H86.3681C87.4964 129.844 88.5782 130.229 89.376 130.913C90.1738 131.596 90.6224 132.523 90.6233 133.49V188.063ZM41.4702 191.71L41.376 192.478H68.0422C68.1184 192.217 68.1945 191.96 68.2797 191.71H41.4702Z" fill="#3F3D56"/>
<path d="M171.837 129.075H108.156C106.79 129.077 105.48 129.542 104.514 130.37C103.548 131.198 103.005 132.32 103.003 133.49V188.063C103.005 189.234 103.548 190.356 104.514 191.184C105.48 192.011 106.79 192.477 108.156 192.478H171.837C173.203 192.478 174.513 192.012 175.479 191.184C176.445 190.357 176.988 189.234 176.989 188.063V133.49C176.988 132.32 176.445 131.197 175.479 130.369C174.513 129.541 173.203 129.076 171.837 129.075ZM176.092 188.063C176.091 189.03 175.642 189.957 174.844 190.641C174.047 191.325 172.965 191.709 171.837 191.71H108.156C107.028 191.708 105.946 191.324 105.148 190.64C104.351 189.957 103.902 189.03 103.9 188.063V133.49C103.902 132.524 104.351 131.597 105.148 130.913C105.946 130.23 107.028 129.845 108.156 129.844H171.837C172.965 129.844 174.047 130.229 174.844 130.913C175.642 131.596 176.091 132.523 176.092 133.49V188.063ZM119.917 191.71C119.971 191.875 120.029 192.04 120.092 192.206L119.98 192.478H142.247C142.269 192.221 142.287 191.964 142.31 191.71H119.917Z" fill="#3F3D56"/>
<path d="M257.31 129.075H193.629C192.263 129.076 190.953 129.541 189.986 130.369C189.02 131.197 188.477 132.32 188.477 133.49V188.063C188.477 189.234 189.02 190.357 189.986 191.184C190.953 192.012 192.263 192.478 193.629 192.478H257.31C258.676 192.477 259.985 192.011 260.951 191.184C261.917 190.356 262.46 189.234 262.462 188.063V133.49C262.46 132.32 261.917 131.198 260.951 130.37C259.985 129.542 258.676 129.077 257.31 129.075ZM261.565 188.063C261.563 189.03 261.114 189.957 260.317 190.64C259.519 191.324 258.438 191.708 257.31 191.71H193.629C192.5 191.709 191.419 191.325 190.621 190.641C189.823 189.957 189.374 189.03 189.373 188.063V133.49C189.374 132.523 189.823 131.596 190.621 130.913C191.419 130.229 192.5 129.844 193.629 129.844H257.31C258.438 129.845 259.519 130.23 260.317 130.913C261.114 131.597 261.563 132.524 261.565 133.49V188.063ZM227.074 191.71C227.052 191.964 227.029 192.221 227.007 192.478H246.328C246.364 192.225 246.405 191.967 246.44 191.71H227.074Z" fill="#3F3D56"/>
<path d="M213.983 214.766H66.0131C65.0617 214.766 64.1494 214.442 63.4766 213.865C62.8039 213.289 62.426 212.507 62.426 211.692C62.426 210.876 62.8039 210.094 63.4766 209.518C64.1494 208.941 65.0617 208.617 66.0131 208.617H213.983C214.935 208.617 215.847 208.941 216.52 209.518C217.193 210.094 217.571 210.876 217.571 211.692C217.571 212.507 217.193 213.289 216.52 213.865C215.847 214.442 214.935 214.766 213.983 214.766Z" fill="#CCCCCC"/>
<path d="M172.507 112.936H107.49C106.538 112.936 105.626 112.612 104.953 112.036C104.28 111.459 103.902 110.677 103.902 109.862C103.902 109.047 104.28 108.265 104.953 107.688C105.626 107.112 106.538 106.788 107.49 106.788H172.507C173.458 106.788 174.371 107.112 175.043 107.688C175.716 108.265 176.094 109.047 176.094 109.862C176.094 110.677 175.716 111.459 175.043 112.036C174.371 112.612 173.458 112.936 172.507 112.936Z" fill="#370E4A"/>
<path d="M61.0223 162.304C61.3953 162.619 61.8883 162.808 62.411 162.837C62.9337 162.866 63.451 162.732 63.8678 162.46C66.4633 160.811 68.742 158.759 70.0905 156.256C71.6357 153.387 71.8081 149.867 69.9451 147.141C68.3701 144.836 65.5892 143.349 62.8175 142.128C61.7413 141.607 60.582 141.224 59.3766 140.991C58.1582 140.761 56.8831 140.937 55.8111 141.484C55.2867 141.766 54.8735 142.177 54.6255 142.663C54.3775 143.149 54.3062 143.688 54.4208 144.209C53.0895 142.907 51.3843 141.926 49.4742 141.363C48.2714 140.96 46.9544 140.878 45.6963 141.128C43.9375 141.556 42.6534 142.895 41.9511 144.342C41.3831 145.442 41.187 146.657 41.385 147.848C41.4892 148.441 41.7375 149.008 42.1137 149.514C42.4899 150.019 42.9856 150.451 43.569 150.782C45.0232 151.553 46.8784 151.497 48.5484 151.182C50.2185 150.867 51.8351 150.319 53.5375 150.181C55.2398 150.042 57.1356 150.406 58.1716 151.572C58.9012 152.393 59.0886 153.466 59.2523 154.488L60.1042 159.806C60.1738 160.575 60.4031 161.328 60.7812 162.028C60.8467 162.129 60.9278 162.222 61.0223 162.304Z" fill="#2F2E41"/>
</g>
<defs>
<clipPath id="clip0_68_210">
<rect width="280" height="236" fill="white"/>
</clipPath>
</defs>
</svg>
