<svg width="279" height="248" viewBox="0 0 279 248" fill="none" xmlns="http://www.w3.org/2000/svg">
<g clip-path="url(#clip0_68_124)">
<path d="M18.776 186.882C17.4512 186.882 16.1236 186.953 14.8272 187.098L14.6385 187.119C6.03908 188.118 -0.250996 193.915 0.00769727 200.604L0.0577086 201.813C0.0906887 202.578 0.125828 203.4 0.154751 204.311C0.170416 204.761 0.637278 205.106 1.21819 205.106H212.743C227.657 204.987 242.516 204.837 256.906 204.661C259.605 204.668 262.302 204.485 264.986 204.111C268.985 203.489 271.761 202.255 273.473 200.341H273.473C275.602 197.966 275.669 194.976 275.54 191.598C275.278 184.777 275.018 177.612 274.758 170.468C274.529 164.171 274.301 157.892 274.073 151.88C273.932 148.313 273.618 145.164 271.201 142.757C268.581 140.154 263.803 138.835 256.999 138.835C256.917 138.835 256.835 138.835 256.752 138.835C235.429 138.935 214.301 148.572 204.179 162.815C203.013 164.455 201.927 166.211 200.877 167.91C199.324 170.419 197.72 173.013 195.805 175.332C194.768 176.605 193.647 177.754 192.455 178.765C192.372 178.84 192.278 178.92 192.179 178.996C191.951 179.191 191.713 179.379 191.481 179.546C190.123 180.577 188.692 181.432 187.209 182.099L187.059 182.165C186.946 182.218 186.824 182.271 186.702 182.32C185.845 182.681 184.955 182.994 184.063 183.247C180.204 184.364 175.817 184.632 171.023 184.042C166.62 183.486 162.274 182.322 158.057 180.569C153.617 178.725 149.462 176.426 145.443 174.203C143.678 173.226 141.852 172.216 140.029 171.259C139.686 171.079 139.349 170.903 139.007 170.727C136.78 169.586 134.761 168.644 132.835 167.846C128.063 165.863 123.122 164.66 118.126 164.265C112.823 163.884 108.15 164.604 104.239 166.4C103.161 166.893 102.112 167.488 101.098 168.179C96.4665 171.34 93.6112 176.006 90.8501 180.518C87.4154 186.131 83.8637 191.935 76.8505 194.944C68.7579 198.419 56.9455 196.975 48.5883 194.464C45.9608 193.675 43.3365 192.767 40.7984 191.888C39.7734 191.533 38.7476 191.181 37.7211 190.831C35.704 190.146 34.0532 189.622 32.5259 189.179L32.0428 189.038C31.7741 188.961 31.5051 188.884 31.2313 188.811C29.4172 188.311 27.7279 187.917 26.0644 187.607L25.6708 187.531C24.8817 187.395 24.144 187.281 23.4201 187.185L23.1312 187.148C21.7133 186.97 20.246 186.882 18.776 186.882Z" fill="#F2F2F2"/>
<path d="M237.505 194.346C243.457 187.297 252.31 183.752 259.736 187.705C252.119 193.264 246.242 202.185 243.148 212.89C241.965 217.024 240.978 221.784 238.07 223.998C236.261 225.375 234.01 225.442 231.981 224.777C229.953 224.113 228.093 222.78 226.259 221.46L225.737 221.445C228.08 211.374 231.553 201.396 237.505 194.346Z" fill="#E6E6E6"/>
<path d="M259.694 187.919C253.118 189.036 246.976 192.849 242.141 198.815C241.083 200.075 240.183 201.547 239.473 203.176C238.821 204.792 238.51 206.608 238.572 208.435C238.604 210.14 238.788 211.88 238.504 213.566C238.349 214.426 238.057 215.233 237.648 215.935C237.239 216.636 236.722 217.216 236.13 217.637C234.677 218.735 233.01 219.081 231.371 219.345C229.551 219.638 227.658 219.905 226.083 221.246C225.892 221.409 225.711 221.01 225.902 220.848C228.642 218.514 232.11 219.363 235.057 217.805C236.432 217.078 237.649 215.803 238.079 213.873C238.456 212.186 238.268 210.392 238.224 208.666C238.144 206.885 238.396 205.104 238.959 203.481C239.603 201.81 240.459 200.295 241.49 199.002C243.775 196.041 246.4 193.571 249.269 191.682C252.534 189.502 256.059 188.072 259.691 187.455C259.916 187.417 259.918 187.881 259.694 187.919Z" fill="white"/>
<path d="M243.612 196.774C242.96 195.572 242.655 194.104 242.751 192.634C242.846 191.163 243.336 189.785 244.134 188.746C244.295 188.536 244.551 188.857 244.389 189.067C243.645 190.033 243.189 191.317 243.102 192.686C243.015 194.056 243.303 195.421 243.915 196.536C244.048 196.778 243.744 197.015 243.612 196.774Z" fill="white"/>
<path d="M238.469 207.573C240.729 208.099 243.058 207.487 244.989 205.857C245.18 205.695 245.361 206.094 245.17 206.256C243.158 207.946 240.734 208.578 238.383 208.023C238.159 207.97 238.247 207.52 238.469 207.573Z" fill="white"/>
<path d="M252.563 190.116C252.741 190.65 253.018 191.118 253.368 191.477C253.717 191.836 254.13 192.075 254.567 192.173C254.792 192.222 254.704 192.672 254.481 192.623C253.998 192.512 253.543 192.247 253.156 191.851C252.769 191.456 252.461 190.942 252.26 190.354C252.237 190.301 252.231 190.238 252.243 190.179C252.254 190.12 252.282 190.069 252.321 190.036C252.361 190.005 252.409 189.995 252.455 190.011C252.5 190.026 252.539 190.063 252.563 190.116Z" fill="white"/>
<path d="M267.913 221.702C267.772 221.676 267.632 221.651 267.489 221.628C265.594 221.298 263.682 221.17 261.772 221.246C261.624 221.249 261.474 221.255 261.327 221.263C256.726 221.512 252.2 222.881 247.98 225.302C246.301 226.267 244.68 227.398 243.132 228.687C240.994 230.466 238.783 232.619 236.393 233.345C236.145 233.424 235.892 233.483 235.638 233.521L225.763 222.283C225.75 222.242 225.736 222.205 225.723 222.164L225.313 221.739C225.389 221.666 225.47 221.591 225.546 221.517C225.59 221.474 225.637 221.434 225.681 221.391C225.711 221.363 225.741 221.335 225.767 221.308C225.777 221.298 225.787 221.289 225.795 221.283C225.821 221.255 225.847 221.233 225.871 221.209C226.32 220.792 226.771 220.378 227.225 219.967C227.227 219.964 227.227 219.964 227.232 219.964C230.671 216.793 234.384 214.169 238.293 212.148C238.411 212.09 238.53 212.029 238.652 211.976C240.412 211.115 242.223 210.445 244.067 209.973C245.077 209.718 246.096 209.531 247.121 209.412C249.769 209.111 252.436 209.36 255.025 210.148C260.186 211.721 264.907 215.446 267.703 221.255C267.774 221.404 267.844 221.55 267.913 221.702Z" fill="#E6E6E6"/>
<path d="M267.783 221.841C262.02 217.529 255.369 215.712 248.776 216.65C247.354 216.819 245.961 217.282 244.648 218.021C243.388 218.795 242.307 219.998 241.52 221.507C240.765 222.894 240.114 224.428 239.115 225.549C238.598 226.113 237.995 226.527 237.347 226.764C236.699 227 236.02 227.054 235.355 226.922C233.692 226.648 232.203 225.606 230.773 224.519C229.186 223.313 227.552 222.028 225.679 221.852C225.453 221.831 225.491 221.37 225.717 221.391C228.975 221.696 231.355 225.119 234.421 226.207C235.852 226.715 237.408 226.659 238.635 225.459C239.709 224.41 240.381 222.829 241.136 221.416C241.888 219.93 242.905 218.708 244.098 217.857C245.378 217.033 246.755 216.501 248.171 216.284C251.352 215.728 254.579 215.833 257.735 216.595C261.341 217.439 264.81 219.087 267.993 221.468C268.189 221.616 267.978 221.988 267.783 221.841Z" fill="white"/>
<path d="M250.885 216.184C250.916 214.709 251.344 213.296 252.094 212.197C252.844 211.099 253.867 210.386 254.979 210.187C255.204 210.148 255.261 210.606 255.036 210.646C254 210.828 253.047 211.492 252.35 212.517C251.654 213.542 251.259 214.86 251.236 216.234C251.231 216.533 250.88 216.481 250.885 216.184Z" fill="white"/>
<path d="M241.833 220.737C243.396 222.946 245.536 224.299 247.825 224.527C248.051 224.549 248.013 225.01 247.787 224.988C245.405 224.746 243.181 223.331 241.558 221.028C241.403 220.809 241.679 220.519 241.833 220.737Z" fill="white"/>
<path d="M261.082 217.952C260.98 218.52 260.986 219.112 261.101 219.675C261.216 220.239 261.436 220.756 261.74 221.18C261.897 221.397 261.621 221.687 261.465 221.471C261.13 221 260.888 220.429 260.76 219.807C260.633 219.184 260.622 218.531 260.731 217.902C260.738 217.842 260.761 217.787 260.797 217.749C260.834 217.71 260.879 217.692 260.926 217.696C260.972 217.703 261.015 217.734 261.044 217.782C261.073 217.83 261.087 217.891 261.082 217.952Z" fill="white"/>
<path d="M81.6966 201.358C86.5703 191.641 95.2885 184.613 104.068 186.125C97.0969 194.856 92.7006 206.546 91.6562 219.128C91.2668 223.981 91.2183 229.434 88.5768 232.864C86.9332 234.999 84.5399 235.894 82.2296 235.924C79.9191 235.955 77.6481 235.21 75.4073 234.469L74.8459 234.643C75.2199 223.016 76.8229 211.074 81.6966 201.358Z" fill="#E6E6E6"/>
<path d="M104.068 186.37C97.2707 189.969 91.5086 196.293 87.6008 204.442C86.7358 206.177 86.0843 208.08 85.6702 210.081C85.3147 212.048 85.3664 214.104 85.8199 216.036C86.2153 217.848 86.7793 219.641 86.8326 221.548C86.8489 222.525 86.7079 223.495 86.4189 224.395C86.1299 225.295 85.6994 226.104 85.1557 226.77C83.8337 228.476 82.1243 229.456 80.4273 230.338C78.5431 231.317 76.5742 232.294 75.1734 234.305C75.0037 234.549 74.726 234.188 74.8955 233.945C77.3326 230.446 81.2213 230.087 84.0433 227.343C85.3601 226.063 86.3914 224.253 86.4437 222.032C86.4894 220.091 85.909 218.24 85.4966 216.41C85.0332 214.534 84.9263 212.538 85.1852 210.595C85.5204 208.573 86.1151 206.64 86.9437 204.879C88.7611 200.877 91.0459 197.275 93.7146 194.206C96.7455 190.681 100.213 187.863 103.967 185.874C104.199 185.751 104.299 186.247 104.068 186.37Z" fill="white"/>
<path d="M88.7416 201.721C87.7904 200.673 87.1534 199.216 86.9444 197.608C86.7354 196 86.968 194.347 87.6006 192.944C87.7294 192.661 88.0704 192.91 87.9415 193.194C87.3505 194.499 87.134 196.039 87.3309 197.536C87.5278 199.032 88.1253 200.387 89.0155 201.355C89.2087 201.566 88.9337 201.93 88.7416 201.721Z" fill="white"/>
<path d="M85.5274 215.151C88.0561 214.888 90.4163 213.381 92.1374 210.932C92.3078 210.689 92.5855 211.05 92.4154 211.292C90.6207 213.836 88.1621 215.398 85.5303 215.664C85.2794 215.689 85.2779 215.176 85.5274 215.151Z" fill="white"/>
<path d="M96.9061 191.327C97.2099 191.833 97.6046 192.232 98.0547 192.488C98.5048 192.744 98.9962 192.849 99.4849 192.794C99.7354 192.765 99.7366 193.278 99.4877 193.307C98.9477 193.365 98.405 193.248 97.9073 192.966C97.4095 192.685 96.9718 192.247 96.6323 191.692C96.5969 191.644 96.577 191.579 96.5767 191.512C96.5763 191.444 96.5954 191.379 96.6302 191.33C96.6667 191.282 96.7161 191.254 96.7678 191.254C96.8195 191.253 96.8692 191.28 96.9061 191.327Z" fill="white"/>
<path d="M120.009 219.496C119.853 219.52 119.697 219.544 119.539 219.572C117.443 219.912 115.371 220.474 113.344 221.254C113.187 221.312 113.028 221.372 112.872 221.435C108.004 223.384 103.453 226.503 99.4512 230.635C97.8599 232.281 96.3662 234.084 94.9831 236.028C93.073 238.713 91.1644 241.824 88.7618 243.474C88.5126 243.65 88.2554 243.805 87.9915 243.939L75.0511 235.53C75.029 235.491 75.0053 235.457 74.9831 235.418L74.4547 235.113C74.5207 235.007 74.5909 234.898 74.6569 234.791C74.695 234.729 74.736 234.668 74.7741 234.606C74.8004 234.565 74.8269 234.525 74.8488 234.486C74.8576 234.472 74.8664 234.459 74.8737 234.449C74.8957 234.41 74.9192 234.377 74.9397 234.342C75.3309 233.732 75.726 233.124 76.125 232.519C76.1265 232.515 76.1265 232.515 76.1308 232.513C79.1804 227.913 82.5489 223.606 86.3076 220.109C86.4207 220.004 86.5352 219.895 86.6542 219.793C88.3551 218.229 90.1504 216.851 92.0222 215.671C93.0487 215.029 94.0993 214.457 95.1699 213.955C97.938 212.665 100.843 211.955 103.779 211.852C109.632 211.647 115.469 213.904 119.69 219.095C119.797 219.228 119.903 219.359 120.009 219.496Z" fill="#E6E6E6"/>
<path d="M119.899 219.693C112.822 217.188 105.325 217.677 98.4719 221.091C96.9867 221.792 95.5947 222.795 94.3474 224.066C93.1627 225.355 92.2622 227.037 91.7395 228.938C91.2251 230.698 90.8539 232.577 90.023 234.141C89.5886 234.934 89.0317 235.597 88.3887 236.087C87.7457 236.577 87.0311 236.882 86.292 236.984C84.4551 237.3 82.6415 236.729 80.8826 236.09C78.9298 235.381 76.91 234.603 74.8704 235.1C74.6233 235.161 74.5667 234.653 74.8134 234.593C78.3618 233.728 81.6316 236.518 85.1415 236.561C86.7793 236.581 88.4316 235.952 89.4906 234.22C90.4166 232.706 90.8006 230.769 91.3098 228.982C91.799 227.117 92.6281 225.439 93.7246 224.092C94.9188 222.743 96.279 221.67 97.7469 220.92C101.031 219.163 104.506 218.095 108.042 217.756C112.077 217.34 116.136 217.834 120.044 219.217C120.286 219.303 120.139 219.778 119.899 219.693Z" fill="white"/>
<path d="M100.629 219.821C100.35 218.232 100.509 216.564 101.078 215.115C101.648 213.666 102.591 212.53 103.739 211.91C103.971 211.786 104.129 212.255 103.896 212.38C102.827 212.954 101.948 214.012 101.42 215.363C100.892 216.714 100.748 218.268 101.015 219.746C101.073 220.067 100.687 220.14 100.629 219.821Z" fill="white"/>
<path d="M91.9111 228.001C94.0508 229.792 96.6254 230.457 99.1214 229.863C99.3687 229.804 99.4254 230.311 99.1785 230.37C96.5801 230.982 93.9019 230.283 91.6784 228.413C91.4666 228.234 91.7004 227.824 91.9111 228.001Z" fill="white"/>
<path d="M111.909 217.983C111.92 218.628 112.052 219.259 112.294 219.819C112.537 220.38 112.881 220.853 113.296 221.195C113.51 221.37 113.276 221.781 113.064 221.607C112.606 221.226 112.226 220.703 111.958 220.084C111.689 219.466 111.54 218.77 111.523 218.058C111.517 217.991 111.531 217.924 111.562 217.87C111.592 217.816 111.637 217.779 111.688 217.767C111.739 217.757 111.791 217.775 111.832 217.815C111.874 217.856 111.901 217.916 111.909 217.983Z" fill="white"/>
<path d="M116.382 128.512C116.706 128.089 116.955 127.578 117.112 127.015C117.268 126.452 117.33 125.851 117.29 125.253C117.251 124.656 117.113 124.077 116.885 123.558C116.658 123.038 116.346 122.59 115.973 122.246L121.066 89.8453L115.571 92.124L111.473 123.469C111.075 124.332 110.931 125.358 111.069 126.351C111.208 127.344 111.618 128.235 112.224 128.857C112.829 129.479 113.586 129.787 114.353 129.723C115.119 129.66 115.841 129.229 116.382 128.512Z" fill="#FFB6B6"/>
<path d="M128.156 41.903L124.752 38.5256C124.752 38.5256 121.749 38.2461 121.217 45.364C120.685 52.4819 117.355 79.8002 117.355 79.8002L112.146 111.51L119.357 113.591L124.936 79.3698L130.521 55.7607L128.156 41.903Z" fill="#E6E6E6"/>
<path d="M125.562 100.578L109.234 83.8904C108.979 83.6298 108.814 83.2473 108.774 82.8268C108.734 82.4062 108.822 81.982 109.02 81.6471L120.13 62.8667C120.328 62.5324 120.619 62.3151 120.939 62.2625C121.259 62.2099 121.582 62.3262 121.837 62.586L138.165 79.274C138.42 79.5345 138.585 79.917 138.625 80.3376C138.665 80.7581 138.576 81.1824 138.379 81.5173L127.269 100.298C127.071 100.632 126.78 100.849 126.46 100.902C126.14 100.954 125.817 100.838 125.562 100.578Z" fill="#3F3D56"/>
<path d="M125.473 98.8514L110.529 83.5791C110.303 83.3478 110.156 83.0081 110.121 82.6347C110.085 82.2613 110.164 81.8846 110.339 81.5873L120.411 64.5621C120.587 64.2652 120.845 64.0723 121.129 64.0256C121.414 63.9789 121.7 64.0822 121.926 64.3128L136.87 79.5852C137.096 79.8165 137.242 80.1561 137.278 80.5295C137.313 80.9029 137.235 81.2796 137.059 81.5769L126.988 98.6022C126.812 98.899 126.553 99.0919 126.269 99.1386C125.985 99.1854 125.699 99.0821 125.473 98.8514Z" fill="white"/>
<path d="M112.488 83.146C112.432 83.0882 112.395 83.0033 112.386 82.91C112.377 82.8166 112.397 82.7225 112.441 82.6481L117.522 74.0594C117.566 73.9851 117.63 73.9368 117.701 73.9251C117.736 73.9193 117.772 73.9227 117.806 73.935C117.84 73.9474 117.872 73.9685 117.9 73.9971C117.928 74.0257 117.952 74.0612 117.969 74.1017C117.987 74.1422 117.998 74.1869 118.003 74.2331C118.007 74.2794 118.004 74.3263 117.995 74.3712C117.986 74.4161 117.97 74.4582 117.948 74.495L112.867 83.0837C112.823 83.1579 112.758 83.2062 112.687 83.2178C112.616 83.2295 112.545 83.2037 112.488 83.146Z" fill="#E4E4E4"/>
<path d="M113.33 84.0067C113.274 83.9488 113.237 83.8639 113.228 83.7706C113.219 83.6772 113.239 83.5831 113.283 83.5087L118.364 74.92C118.408 74.8457 118.472 74.7974 118.543 74.7857C118.614 74.774 118.686 74.7999 118.742 74.8577C118.799 74.9154 118.836 75.0004 118.845 75.0937C118.854 75.1871 118.834 75.2813 118.79 75.3556L113.709 83.9444C113.665 84.0186 113.601 84.0668 113.529 84.0785C113.458 84.0902 113.387 84.0643 113.33 84.0067Z" fill="#E4E4E4"/>
<path d="M117.051 80.0015C116.994 79.9437 116.958 79.8588 116.949 79.7654C116.94 79.6721 116.96 79.5779 117.003 79.5036L119.206 75.7806C119.228 75.7437 119.255 75.7128 119.285 75.6897C119.316 75.6666 119.35 75.6517 119.385 75.6459C119.421 75.64 119.456 75.6434 119.491 75.6557C119.525 75.6681 119.557 75.6891 119.585 75.7178C119.613 75.7464 119.636 75.782 119.654 75.8226C119.671 75.8631 119.683 75.9078 119.687 75.9541C119.691 76.0004 119.689 76.0474 119.679 76.0924C119.67 76.1373 119.654 76.1794 119.632 76.2162L117.43 79.9392C117.386 80.0134 117.321 80.0616 117.25 80.0733C117.179 80.085 117.107 80.0592 117.051 80.0015Z" fill="#E4E4E4"/>
<path d="M118.186 87.3075C118.13 87.2497 118.093 87.1648 118.084 87.0715C118.075 86.9781 118.095 86.8839 118.139 86.8096L126.16 73.2507C126.182 73.2139 126.209 73.1831 126.239 73.16C126.27 73.137 126.304 73.1222 126.339 73.1164C126.375 73.1106 126.41 73.114 126.444 73.1263C126.479 73.1387 126.511 73.1597 126.539 73.1883C126.567 73.2169 126.59 73.2525 126.608 73.293C126.625 73.3335 126.636 73.3782 126.641 73.4244C126.645 73.4706 126.643 73.5176 126.633 73.5625C126.624 73.6074 126.608 73.6495 126.586 73.6863L118.565 87.2452C118.521 87.3194 118.456 87.3676 118.385 87.3793C118.314 87.391 118.243 87.3652 118.186 87.3075Z" fill="#E4E4E4"/>
<path d="M119.028 88.1682C118.972 88.1103 118.935 88.0254 118.926 87.9321C118.917 87.8387 118.937 87.7446 118.981 87.6702L127.002 74.1113C127.024 74.0745 127.051 74.0437 127.081 74.0207C127.112 73.9976 127.146 73.9828 127.181 73.977C127.217 73.9712 127.252 73.9746 127.286 73.9869C127.321 73.9993 127.353 74.0204 127.381 74.049C127.409 74.0776 127.432 74.1131 127.45 74.1536C127.467 74.1941 127.478 74.2388 127.483 74.285C127.487 74.3313 127.485 74.3782 127.475 74.4231C127.466 74.468 127.45 74.5101 127.428 74.5469L119.407 88.1058C119.363 88.18 119.298 88.2283 119.227 88.24C119.156 88.2516 119.085 88.2258 119.028 88.1682Z" fill="#E4E4E4"/>
<path d="M120.94 90.1217C120.883 90.0639 120.847 89.979 120.838 89.8857C120.829 89.7923 120.848 89.6982 120.892 89.6238L128.913 76.0649C128.935 76.0281 128.962 75.9973 128.993 75.9743C129.024 75.9512 129.058 75.9364 129.093 75.9306C129.128 75.9248 129.164 75.9282 129.198 75.9405C129.232 75.9529 129.264 75.974 129.292 76.0026C129.32 76.0312 129.344 76.0667 129.361 76.1072C129.379 76.1477 129.39 76.1924 129.394 76.2386C129.399 76.2849 129.396 76.3318 129.387 76.3767C129.377 76.4216 129.361 76.4637 129.34 76.5005L121.319 90.0594C121.275 90.1336 121.21 90.1819 121.139 90.1935C121.068 90.2052 120.996 90.1794 120.94 90.1217Z" fill="#E4E4E4"/>
<path d="M121.782 90.9824C121.725 90.9245 121.689 90.8396 121.68 90.7463C121.671 90.6529 121.691 90.5588 121.734 90.4844L129.755 76.9255C129.777 76.8887 129.804 76.8579 129.835 76.8349C129.866 76.8118 129.9 76.797 129.935 76.7912C129.97 76.7854 130.006 76.7888 130.04 76.8011C130.074 76.8135 130.106 76.8346 130.134 76.8632C130.162 76.8918 130.186 76.9273 130.203 76.9678C130.221 77.0083 130.232 77.053 130.236 77.0992C130.241 77.1455 130.238 77.1924 130.229 77.2373C130.22 77.2823 130.203 77.3243 130.182 77.3611L122.161 90.92C122.117 90.9942 122.052 91.0425 121.981 91.0542C121.91 91.0659 121.838 91.04 121.782 90.9824Z" fill="#E4E4E4"/>
<path d="M123.693 92.936C123.637 92.8782 123.6 92.7933 123.591 92.6999C123.582 92.6066 123.602 92.5124 123.646 92.4381L131.667 78.8792C131.689 78.8424 131.716 78.8116 131.747 78.7885C131.777 78.7655 131.811 78.7507 131.847 78.7449C131.882 78.7391 131.917 78.7425 131.952 78.7548C131.986 78.7672 132.018 78.7882 132.046 78.8168C132.074 78.8454 132.097 78.881 132.115 78.9215C132.132 78.962 132.144 79.0067 132.148 79.0529C132.152 79.0991 132.15 79.146 132.14 79.191C132.131 79.2359 132.115 79.278 132.093 79.3147L124.072 92.8737C124.028 92.9479 123.964 92.9961 123.893 93.0078C123.822 93.0195 123.75 92.9937 123.693 92.936Z" fill="#E4E4E4"/>
<path d="M124.535 93.7966C124.479 93.7387 124.442 93.6538 124.433 93.5605C124.425 93.4671 124.444 93.373 124.488 93.2986L132.509 79.7397C132.553 79.6658 132.618 79.6178 132.689 79.6063C132.759 79.5947 132.831 79.6206 132.887 79.6783C132.944 79.7359 132.981 79.8206 132.989 79.9138C132.998 80.007 132.979 80.101 132.935 80.1753L124.914 93.7343C124.87 93.8085 124.806 93.8567 124.735 93.8684C124.664 93.8801 124.592 93.8542 124.535 93.7966Z" fill="#E4E4E4"/>
<path d="M111.13 109.543C111.191 109.543 111.241 109.478 111.241 109.398C111.241 109.317 111.191 109.252 111.13 109.252C111.068 109.252 111.019 109.317 111.019 109.398C111.019 109.478 111.068 109.543 111.13 109.543Z" fill="white"/>
<path d="M127.281 9.15903C126.891 11.9121 126.251 14.594 125.376 17.1473C120.366 31.08 134.635 26.5387 139.735 26.5387C145.31 26.5387 150.645 30.3923 149.83 13.2693C149.482 5.95517 145.31 0 139.735 0C134.972 0 128.276 2.78232 127.281 9.15903Z" fill="#2F2E41"/>
<path d="M144.932 213.502H140.181L137.921 189.419H144.932V213.502Z" fill="#FFB6B6"/>
<path d="M147.439 224.321H144.033L143.424 220.093L141.867 224.321H132.832C132.399 224.321 131.977 224.139 131.628 223.801C131.279 223.464 131.022 222.989 130.893 222.445C130.764 221.902 130.77 221.319 130.912 220.78C131.053 220.242 131.321 219.778 131.678 219.454L138.893 212.904V208.63L146.482 209.226L147.439 224.321Z" fill="#2F2E41"/>
<path d="M173.154 205.622L169.342 209.348L156.594 191.796L162.221 186.297L173.154 205.622Z" fill="#FFB6B6"/>
<path d="M180.077 212.337L177.343 215.009L174.936 212.094L175.606 216.708L168.355 223.794C168.008 224.134 167.587 224.319 167.154 224.322C166.721 224.324 166.298 224.145 165.948 223.81C165.598 223.475 165.338 223.002 165.207 222.459C165.076 221.917 165.081 221.333 165.22 220.794L168.036 209.879L166.096 206.45L172.456 200.975L180.077 212.337Z" fill="#2F2E41"/>
<path d="M129.374 102.663L151.924 98.0463L147.439 80.3143H129.374V102.663Z" fill="#FFB6B6"/>
<path d="M150.462 89.245C150.462 89.245 159.476 99.4801 155.317 128.658L150.24 157.247L164.072 188.811L157.039 193.854L139.993 162.714L132.193 138.666L128.067 96.518L150.462 89.245Z" fill="#2F2E41"/>
<path d="M136.493 145.519L135.95 156.554L137.537 189.232L145.416 192.797L146.908 159.316L136.493 145.519Z" fill="#2F2E41"/>
<path d="M134.07 30.2113L142.787 30.6583L146.261 38.2378L154.187 40.2716L149.455 71.7339L150.325 89.6419L142.433 89.5787C136.745 89.5331 131.245 92.2491 126.987 97.2057L127.223 73.9597L123.829 56.6069L124.592 38.4113L130.968 37.3637L134.07 30.2113Z" fill="#E6E6E6"/>
<path d="M138.899 26.5354C143.43 26.5354 147.103 21.7078 147.103 15.7526C147.103 9.79737 143.43 4.96973 138.899 4.96973C134.369 4.96973 130.696 9.79737 130.696 15.7526C130.696 21.7078 134.369 26.5354 138.899 26.5354Z" fill="#FFB6B6"/>
<path d="M133.328 4.76095C134.766 3.60905 136.412 2.98593 138.096 2.95676C139.779 2.92759 141.438 3.49343 142.898 4.59512C144.358 5.69681 145.566 7.29388 146.396 9.21934C147.226 11.1448 147.647 13.3279 147.615 15.5405C143.435 16.9199 139.043 17.9756 134.586 15.8704L133.533 12.4838L132.912 15.8729C131.555 16.6023 130.193 17.2194 128.832 15.8659C128.777 13.6596 129.163 11.4728 129.952 9.52402C130.741 7.57527 131.905 5.93285 133.328 4.76095Z" fill="#2F2E41"/>
<path d="M152.669 111.381L153.775 124.573C153.852 124.902 154.008 125.19 154.218 125.395C154.429 125.599 154.684 125.71 154.946 125.71H160.044C160.306 125.71 160.561 125.599 160.772 125.395C160.982 125.19 161.138 124.902 161.215 124.573L162.131 114.462C162.395 114.633 162.686 114.718 162.981 114.712C163.275 114.705 163.564 114.607 163.824 114.425C164.084 114.243 164.307 113.983 164.476 113.665C164.644 113.348 164.753 112.982 164.793 112.599C164.833 112.215 164.803 111.825 164.706 111.459C164.609 111.094 164.447 110.764 164.234 110.497C164.021 110.23 163.762 110.033 163.48 109.923C163.198 109.812 162.9 109.792 162.61 109.862C162.496 109.685 162.354 109.542 162.193 109.445C162.033 109.347 161.858 109.297 161.681 109.297H153.84C153.649 109.298 153.46 109.357 153.288 109.47C153.117 109.584 152.969 109.748 152.855 109.951C152.741 110.154 152.665 110.389 152.633 110.637C152.6 110.886 152.613 111.141 152.669 111.381ZM162.291 113.778L162.852 111.381C162.917 111.105 162.923 110.81 162.87 110.529C162.894 110.527 162.917 110.52 162.941 110.52C163.293 110.52 163.631 110.704 163.88 111.031C164.13 111.358 164.27 111.803 164.27 112.266C164.27 112.729 164.13 113.173 163.88 113.5C163.631 113.828 163.293 114.012 162.941 114.012C162.713 114.01 162.488 113.929 162.291 113.778Z" fill="#370E4A"/>
<path d="M160.356 125.719C160.034 125.294 159.788 124.781 159.633 124.217C159.478 123.653 159.419 123.051 159.461 122.454C159.502 121.857 159.643 121.279 159.872 120.761C160.102 120.243 160.415 119.797 160.79 119.456L155.822 87.0211L161.308 89.3364L165.285 120.709C165.68 121.575 165.82 122.601 165.677 123.593C165.535 124.585 165.121 125.474 164.514 126.091C163.906 126.709 163.147 127.012 162.381 126.943C161.615 126.875 160.894 126.439 160.356 125.719Z" fill="#FFB6B6"/>
<path d="M150.783 43.649L154.187 40.2716C154.187 40.2716 157.19 39.9921 157.721 47.11C158.253 54.2279 161.583 81.5462 161.583 81.5462L166.792 113.256L159.582 115.337L154.003 81.1157L148.418 57.5067L150.783 43.649Z" fill="#E6E6E6"/>
<path d="M121.404 73.1742C122.468 73.1742 123.331 72.0403 123.331 70.6415C123.331 69.2427 122.468 68.1088 121.404 68.1088C120.339 68.1088 119.477 69.2427 119.477 70.6415C119.477 72.0403 120.339 73.1742 121.404 73.1742Z" fill="#370E4A"/>
<path d="M59.9578 242.884L63.9735 242.883L65.884 222.525L59.9572 222.525L59.9578 242.884Z" fill="#FFB6B6"/>
<path d="M58.9335 241.16L60.0638 241.16L64.4767 238.801L66.8419 241.16C68.1785 241.16 69.4606 241.858 70.4058 243.1C71.3509 244.342 71.8819 246.027 71.882 247.784V247.999L58.9337 248L58.9335 241.16Z" fill="#2F2E41"/>
<path d="M75.5194 239.557L79.4367 240.72L84.712 221.414L78.9306 219.699L75.5194 239.557Z" fill="#FFB6B6"/>
<path d="M74.8091 237.58L75.9117 237.907L80.6115 236.884L82.5233 239.869L82.5236 239.869C83.8274 240.256 84.9608 241.308 85.6745 242.794C86.3882 244.279 86.6238 246.076 86.3295 247.79L86.2934 248L73.6631 244.252L74.8091 237.58Z" fill="#2F2E41"/>
<path d="M52.6062 138.161L56.2375 191.637C56.2375 191.637 54.8769 223.741 59.2673 235.038H65.6347L68.7873 188.705L69.1831 157.605L82.834 183.843L74.1394 234.281L81.976 235.202L96.0852 180.465L80.5845 129.079L52.6062 138.161Z" fill="#2F2E41"/>
<path d="M56.4093 53.0017C61.5814 53.0017 65.7742 47.4907 65.7742 40.6925C65.7742 33.8943 61.5814 28.3833 56.4093 28.3833C51.2372 28.3833 47.0444 33.8943 47.0444 40.6925C47.0444 47.4907 51.2372 53.0017 56.4093 53.0017Z" fill="#FFB8B8"/>
<path d="M72.8721 64.7318L65.1893 60.3989L61.4492 55.1847L52.106 57.1653L49.627 62.7521L41.6022 72.5599L51.0042 128.437L50.7196 140.641C50.7196 140.641 56.7371 144.201 82.8341 136.003C83.147 135.905 82.4919 135.474 82.4919 135.474L72.8721 64.7318Z" fill="#3F3D56"/>
<path d="M46.6713 47.677C46.606 47.56 46.5414 47.442 46.4774 47.3229C46.4517 47.3944 46.4312 47.4683 46.4018 47.538L46.6713 47.677Z" fill="#2F2E41"/>
<path d="M65.725 31.6889C65.099 29.8964 63.9828 28.4792 62.5984 27.7187C61.2261 26.9912 59.6925 26.993 58.3212 27.7236C57.0831 26.6955 55.7075 25.8804 54.2588 25.7795C52.8101 25.6785 51.2784 26.385 50.3856 27.94C50.1863 28.3505 49.9598 28.7371 49.7089 29.0955C48.9913 29.969 47.9007 29.843 46.9468 29.6644C47.3747 30.1464 47.8026 30.6283 48.2307 31.1103C47.7128 31.2881 47.1948 31.4659 46.6769 31.6438C47.2813 32.1256 47.8856 32.6074 48.4899 33.0892C46.7354 34.4733 45.938 37.4945 46.1486 40.2383C46.3479 42.8361 47.3021 45.2115 48.4427 47.3229C48.8977 46.0608 48.7997 44.5506 48.7922 43.1292C48.7844 41.6272 48.9865 39.9217 49.9022 39.0823C50.5198 38.5161 51.3141 38.4908 52.0589 38.4962C55.8159 38.5233 59.5688 38.8312 63.2992 39.4185C63.8054 39.4473 64.299 39.6355 64.7383 39.9671C65.5633 40.7069 65.724 42.2335 65.8069 43.5728C66.2427 41.3614 66.456 39.0844 66.4413 36.8002C66.478 35.0492 66.2339 33.3077 65.725 31.6889Z" fill="#2F2E41"/>
<path d="M68.6406 175.648C76.7811 175.648 83.3803 166.974 83.3803 156.274C83.3803 145.574 76.7811 136.9 68.6406 136.9C60.5001 136.9 53.9009 145.574 53.9009 156.274C53.9009 166.974 60.5001 175.648 68.6406 175.648Z" fill="white"/>
<path d="M68.6406 136.469C67.8829 136.47 67.1263 136.544 66.3772 136.693C65.994 136.767 65.6207 136.861 65.2504 136.977C62.5312 137.801 60.0396 139.602 58.0536 142.179C56.0676 144.755 54.6654 148.007 54.0033 151.57C53.3412 155.133 53.4454 158.868 54.3041 162.358C55.1628 165.847 56.7424 168.955 58.8666 171.334C59.1188 171.614 59.3742 171.885 59.6395 172.143C61.5518 174.017 63.7753 175.267 66.127 175.791C68.4787 176.315 70.8915 176.097 73.1667 175.156C75.4419 174.215 77.5145 172.577 79.214 170.377C80.9135 168.177 82.1912 165.478 82.9421 162.502C83.6929 159.526 83.8954 156.359 83.5328 153.26C83.1703 150.161 82.2531 147.22 80.8567 144.678C79.4604 142.136 77.6248 140.067 75.5009 138.64C73.3771 137.213 71.0259 136.469 68.6406 136.469ZM68.6406 175.217C65.5761 175.221 62.5913 173.934 60.1243 171.545C59.8558 171.286 59.597 171.019 59.3448 170.735C57.2753 168.441 55.7397 165.426 54.9142 162.037C54.0887 158.647 54.0067 155.021 54.6776 151.573C55.3485 148.125 56.7451 144.996 58.7073 142.544C60.6695 140.092 63.1178 138.416 65.7713 137.709C66.1381 137.61 66.505 137.533 66.8784 137.473C67.463 137.377 68.0515 137.33 68.6406 137.33C72.4629 137.33 76.1287 139.326 78.8315 142.879C81.5343 146.431 83.0528 151.25 83.0528 156.274C83.0528 161.298 81.5343 166.116 78.8315 169.669C76.1287 173.221 72.4629 175.217 68.6406 175.217Z" fill="#3F3D56"/>
<path d="M61.411 152.399H75.8703C76.3999 152.399 76.8293 151.835 76.8293 151.138V151.077C76.8293 150.38 76.3999 149.816 75.8703 149.816H61.411C60.8813 149.816 60.4519 150.38 60.4519 151.077V151.138C60.4519 151.835 60.8813 152.399 61.411 152.399Z" fill="#370E4A"/>
<path d="M61.411 157.565H75.8703C76.3999 157.565 76.8293 157.001 76.8293 156.305V156.243C76.8293 155.547 76.3999 154.982 75.8703 154.982H61.411C60.8813 154.982 60.4519 155.547 60.4519 156.243V156.305C60.4519 157.001 60.8813 157.565 61.411 157.565Z" fill="#370E4A"/>
<path d="M61.411 162.732H75.8703C76.3999 162.732 76.8293 162.167 76.8293 161.471V161.409C76.8293 160.713 76.3999 160.149 75.8703 160.149H61.411C60.8813 160.149 60.4519 160.713 60.4519 161.409V161.471C60.4519 162.167 60.8813 162.732 61.411 162.732Z" fill="#370E4A"/>
<path d="M233.546 242.227L229.335 242.226L227.332 220.879L233.546 220.879L233.546 242.227Z" fill="#9E616A"/>
<path d="M213.625 242.227L209.415 242.226L207.411 220.879L213.626 220.879L213.625 242.227Z" fill="#9E616A"/>
<path d="M213.773 248L200.825 247.999V247.784C200.825 246.027 201.356 244.342 202.301 243.1C203.247 241.858 204.528 241.16 205.865 241.16H205.865L208.231 238.801L212.643 241.16L213.774 241.16L213.773 248Z" fill="#2F2E41"/>
<path d="M234.234 248L221.286 247.999V247.784C221.286 246.027 221.817 244.342 222.762 243.1C223.707 241.858 224.989 241.16 226.326 241.16H226.326L228.691 238.801L233.104 241.16L234.234 241.16L234.234 248Z" fill="#2F2E41"/>
<path d="M209.495 115.885L203.096 167.102L204.837 174.734L202.552 180.139L205.908 227.611L204.546 231.553L208.352 234.638H216.097L216.508 191.662L218.421 185.352V181.875L222.316 155.669L223.033 192.368L224.166 198.688L223.214 203.188L224.457 206.34L227.76 235.574H236.445L235.773 228.773C236.53 228.27 237.137 227.45 237.501 226.443C237.864 225.436 237.963 224.299 237.781 223.211L237.283 220.23L238.416 211.415L240.48 162.241L239.898 122.563L229.739 112.352L209.495 115.885Z" fill="#2F2E41"/>
<path d="M224.166 50.1163C228.622 50.1163 232.234 45.368 232.234 39.5107C232.234 33.6534 228.622 28.9051 224.166 28.9051C219.709 28.9051 216.097 33.6534 216.097 39.5107C216.097 45.368 219.709 50.1163 224.166 50.1163Z" fill="#9E616A"/>
<path d="M206.536 136.209C206.887 135.732 207.155 135.16 207.319 134.533C207.484 133.905 207.542 133.238 207.489 132.578C207.437 131.918 207.274 131.281 207.014 130.713C206.754 130.144 206.402 129.657 205.983 129.286L209.121 113.69L203.076 116.363L201.023 130.764C200.596 131.73 200.453 132.868 200.622 133.963C200.791 135.058 201.26 136.034 201.939 136.705C202.619 137.376 203.462 137.697 204.309 137.605C205.157 137.514 205.949 137.017 206.536 136.209Z" fill="#9E616A"/>
<path d="M209.838 61.3301L208.541 60.9761L207.434 61.7815C207.434 61.7815 204.343 67.1988 204.343 72.1646C204.343 77.1304 200.565 124.983 200.565 124.983L207.434 129.046L212.929 91.5764L209.838 61.3301Z" fill="#E6E6E6"/>
<path d="M231.232 31.7349C231.232 31.7349 233.342 26.4321 228.699 25.95C228.699 25.95 224.741 21.2307 220.707 25.0872C220.707 25.0872 218.506 25.0872 217.303 28.3604C217.303 28.3604 215.572 27.4976 215.192 29.8066C215.192 29.8066 213.925 34.6273 215.192 38.966C216.458 43.3046 216.879 43.7867 216.879 43.7867C216.879 43.7867 214.798 34.6905 219.863 34.2084C224.928 33.7263 230.597 29.5656 231.019 34.8683C231.441 40.1711 232.076 41.4777 232.076 41.4777C232.076 41.4777 236.086 33.9042 231.232 31.7349Z" fill="#2F2E41"/>
<path d="M260.706 180.139C260.097 180.141 259.51 179.846 259.056 179.312L234.637 150.741C234.145 150.164 233.847 149.354 233.809 148.489C233.771 147.623 233.995 146.773 234.433 146.125L250.076 123.027C250.515 122.38 251.131 121.989 251.79 121.939C252.448 121.888 253.095 122.183 253.588 122.759L278.007 151.33C278.499 151.906 278.798 152.717 278.836 153.582C278.874 154.448 278.649 155.298 278.211 155.945L262.568 179.043C262.351 179.365 262.088 179.627 261.794 179.814C261.5 180.001 261.18 180.11 260.854 180.134C260.805 180.138 260.755 180.139 260.706 180.139Z" fill="white"/>
<path d="M260.706 180.349C260.058 180.351 259.432 180.037 258.95 179.469L234.531 150.898C234.007 150.284 233.69 149.422 233.649 148.501C233.609 147.58 233.848 146.675 234.314 145.985L249.956 122.887C250.424 122.199 251.08 121.783 251.78 121.729C252.481 121.676 253.169 121.989 253.694 122.602L278.113 151.173C278.637 151.786 278.955 152.649 278.995 153.57C279.036 154.491 278.797 155.396 278.33 156.085L262.687 179.183C262.457 179.526 262.177 179.804 261.864 180.004C261.551 180.203 261.211 180.318 260.863 180.344C260.811 180.347 260.758 180.349 260.706 180.349ZM251.935 122.563C251.651 122.562 251.371 122.641 251.112 122.793C250.854 122.945 250.622 123.168 250.434 123.446L234.791 146.544C234.438 147.067 234.256 147.754 234.287 148.452C234.318 149.151 234.559 149.805 234.956 150.27L259.375 178.841C259.572 179.071 259.801 179.249 260.05 179.363C260.299 179.476 260.563 179.525 260.826 179.505C261.089 179.484 261.347 179.396 261.584 179.245C261.822 179.094 262.034 178.883 262.209 178.624L277.852 155.526C278.206 155.004 278.388 154.317 278.357 153.619C278.326 152.92 278.085 152.266 277.688 151.801L253.269 123.23C252.902 122.799 252.427 122.562 251.935 122.563Z" fill="#3F3D56"/>
<path d="M269.561 158.264C269.298 158.265 269.043 158.138 268.846 157.907L249.678 135.48C249.572 135.356 249.486 135.207 249.424 135.039C249.362 134.872 249.325 134.69 249.317 134.504C249.308 134.319 249.328 134.132 249.374 133.957C249.421 133.781 249.493 133.618 249.587 133.479C249.682 133.34 249.796 133.227 249.923 133.146C250.051 133.065 250.189 133.018 250.331 133.008C250.472 132.997 250.614 133.023 250.747 133.085C250.881 133.147 251.004 133.242 251.11 133.366L270.278 155.794C270.441 155.984 270.556 156.236 270.608 156.514C270.659 156.793 270.645 157.086 270.568 157.354C270.49 157.622 270.352 157.852 270.172 158.015C269.993 158.178 269.779 158.265 269.561 158.264Z" fill="#370E4A"/>
<path d="M265.905 163.663C265.641 163.663 265.387 163.536 265.19 163.305L246.022 140.878C245.917 140.755 245.831 140.605 245.769 140.438C245.708 140.27 245.672 140.089 245.663 139.904C245.655 139.718 245.675 139.532 245.721 139.357C245.768 139.181 245.84 139.02 245.934 138.881C246.028 138.742 246.142 138.629 246.269 138.548C246.396 138.467 246.534 138.42 246.676 138.409C246.817 138.399 246.958 138.425 247.091 138.486C247.225 138.547 247.348 138.642 247.454 138.765L266.622 161.192C266.785 161.383 266.9 161.634 266.951 161.913C267.003 162.191 266.989 162.484 266.912 162.752C266.834 163.02 266.696 163.251 266.516 163.413C266.337 163.576 266.123 163.663 265.905 163.663Z" fill="#370E4A"/>
<path d="M262.249 169.062C261.985 169.062 261.731 168.935 261.534 168.704L242.366 146.277C242.26 146.154 242.174 146.004 242.112 145.837C242.05 145.669 242.014 145.488 242.006 145.302C241.998 145.117 242.017 144.931 242.064 144.755C242.11 144.579 242.183 144.418 242.277 144.279C242.371 144.14 242.485 144.027 242.612 143.946C242.739 143.865 242.878 143.818 243.019 143.807C243.16 143.796 243.302 143.822 243.435 143.884C243.569 143.945 243.692 144.04 243.797 144.164L262.965 166.591C263.128 166.782 263.243 167.033 263.295 167.311C263.347 167.59 263.333 167.883 263.255 168.151C263.178 168.419 263.04 168.65 262.86 168.812C262.68 168.975 262.467 169.062 262.249 169.062Z" fill="#370E4A"/>
<path d="M240.329 137.13C240.083 136.55 239.937 135.907 239.9 135.245C239.864 134.583 239.939 133.919 240.119 133.299C240.299 132.679 240.58 132.118 240.943 131.657C241.306 131.195 241.741 130.844 242.218 130.627L242.239 114.495L247.558 119.122L246.723 133.732C246.946 134.81 246.861 135.958 246.484 136.959C246.106 137.96 245.462 138.745 244.674 139.163C243.886 139.582 243.008 139.607 242.208 139.232C241.407 138.857 240.738 138.109 240.329 137.13Z" fill="#9E616A"/>
<path d="M240.821 65.7507L243.197 62.7405L244.942 64.3964C244.942 64.3964 246.659 67.105 248.033 75.2309C249.407 83.3568 248.033 128.049 248.033 128.049L240.477 126.695L241.507 103.22L238.416 83.3568L240.821 65.7507Z" fill="#E6E6E6"/>
<path d="M244.329 63.4749L236.324 58.4489L230.889 51.823L220.978 51.7255L217.781 57.1883L209.341 60.9566L210.748 99.2092L209.789 102.151C209.789 102.151 210.457 102.944 210.763 103.388C211.068 103.832 210.341 107.546 210.341 107.546L209.931 111.588L211.068 112.656L209.59 114.951L209.223 118.569C209.223 118.569 235.027 110.139 239.903 124.104C240.16 124.842 239.526 117.631 239.526 117.631L238.892 112.352L239.521 107.613L240.48 106.353L238.871 104.239L239.903 94.2064L244.329 63.4749Z" fill="#3F3D56"/>
<path d="M62.7918 148.278C62.9905 147.615 63.0761 146.903 63.0427 146.191C63.0093 145.48 62.8577 144.787 62.5985 144.161C62.3393 143.535 61.9789 142.992 61.5426 142.569C61.1063 142.146 60.6047 141.854 60.0732 141.713L58.295 124.55L53.1391 130.474L55.6182 145.864C55.4976 147.053 55.7132 148.259 56.2239 149.254C56.7347 150.248 57.5052 150.962 58.3894 151.259C59.2737 151.557 60.2102 151.417 61.0216 150.868C61.833 150.318 62.4628 149.397 62.7918 148.278Z" fill="#FFB8B8"/>
<path d="M42.5916 72.246L41.1941 72.5979L40.3494 73.9958C40.3494 73.9958 38.9828 81.0412 40.5396 85.9648C42.0963 90.8885 53.3518 140.381 53.3518 140.381L61.4363 140.689L55.1385 100.561L42.5916 72.246Z" fill="#3F3D56"/>
<path d="M74.463 145.76C74.0905 145.242 73.809 144.623 73.6383 143.947C73.4675 143.271 73.4117 142.553 73.4746 141.846C73.5376 141.138 73.7178 140.457 74.0027 139.851C74.2876 139.244 74.6701 138.728 75.1233 138.337L71.9047 121.54L78.3693 124.51L80.4347 140.005C80.8838 141.049 81.026 142.274 80.8341 143.447C80.6422 144.62 80.1297 145.659 79.3936 146.369C78.6575 147.078 77.749 147.408 76.8403 147.296C75.9315 147.184 75.0857 146.637 74.463 145.76Z" fill="#FFB8B8"/>
<path d="M71.6385 65.3114L73.0351 64.953L74.2154 65.8361C74.2154 65.8361 77.482 71.7037 77.4342 77.0352C77.3864 82.3668 80.9821 133.806 80.9821 133.806L73.568 138.054L68.0286 97.7339L71.6385 65.3114Z" fill="#3F3D56"/>
</g>
<defs>
<clipPath id="clip0_68_124">
<rect width="279" height="248" fill="white"/>
</clipPath>
</defs>
</svg>
