<svg width="222" height="198" viewBox="0 0 222 198" fill="none" xmlns="http://www.w3.org/2000/svg">
<g clip-path="url(#clip0_81_5)">
<path d="M211.115 183.848V184.065C211.115 184.122 211.115 184.182 211.111 184.239C211.056 187.201 210.013 190.062 208.145 192.374C208.051 192.495 207.952 192.612 207.851 192.728C207.698 192.907 207.542 193.078 207.381 193.247C207.367 193.261 207.353 193.277 207.337 193.291L207.33 193.297C207.311 193.316 207.293 193.336 207.275 193.355C206.991 193.645 206.694 193.923 206.383 194.189C206.321 194.241 206.256 194.296 206.189 194.349C203.784 196.33 200.761 197.425 197.634 197.447C197.611 197.45 197.586 197.45 197.563 197.45H197.482C197.459 197.45 197.436 197.45 197.413 197.447C197.332 197.447 197.254 197.445 197.173 197.443C194.046 197.369 191.041 196.224 188.669 194.2C188.604 194.148 188.54 194.093 188.478 194.036C188.231 193.821 187.994 193.595 187.766 193.361C187.747 193.343 187.729 193.323 187.71 193.304L187.703 193.297C187.687 193.284 187.674 193.268 187.66 193.254C187.466 193.053 187.28 192.845 187.1 192.632C187.001 192.516 186.904 192.397 186.81 192.276C184.99 189.981 183.976 187.158 183.922 184.239C183.918 184.184 183.918 184.127 183.918 184.07V183.857C183.918 183.832 183.918 183.807 183.92 183.782C183.953 180.857 184.949 178.022 186.756 175.71C186.851 175.589 186.948 175.47 187.047 175.354C187.229 175.135 187.42 174.922 187.616 174.714C187.63 174.698 187.644 174.684 187.66 174.668C187.66 174.666 187.662 174.664 187.664 174.661C187.683 174.643 187.701 174.623 187.722 174.604C187.978 174.342 188.244 174.089 188.521 173.846C188.584 173.789 188.648 173.734 188.713 173.681C191.138 171.632 194.214 170.497 197.399 170.475C197.422 170.473 197.448 170.473 197.471 170.473H197.62C200.732 170.492 203.743 171.573 206.145 173.535C206.21 173.59 206.275 173.642 206.339 173.697C206.675 173.98 206.998 174.282 207.304 174.597C207.323 174.616 207.341 174.636 207.36 174.655L207.364 174.659C207.381 174.673 207.397 174.691 207.41 174.705C207.581 174.883 207.745 175.068 207.904 175.256C208.005 175.372 208.102 175.489 208.198 175.61C210.055 177.939 211.08 180.813 211.113 183.782C211.115 183.804 211.116 183.826 211.115 183.848Z" fill="#E97462"/>
<path d="M197.634 170.528H197.173V197.493H197.634V170.528Z" fill="white"/>
<path d="M211.115 183.782H183.81V184.239H211.115V183.782Z" fill="white"/>
<path d="M191.639 183.782C191.603 182.116 191.167 180.483 190.369 179.018C189.57 177.552 188.432 176.296 187.047 175.354C186.948 175.47 186.851 175.589 186.756 175.71C188.088 176.61 189.184 177.811 189.953 179.215C190.723 180.619 191.143 182.184 191.18 183.782C191.183 183.857 191.183 183.933 191.183 184.01C191.183 184.088 191.183 184.163 191.18 184.239C191.143 185.826 190.727 187.381 189.968 188.778C189.208 190.175 188.126 191.373 186.809 192.276C186.904 192.397 187.001 192.516 187.1 192.632C188.47 191.687 189.595 190.434 190.384 188.975C191.173 187.517 191.603 185.894 191.639 184.239C191.643 184.163 191.643 184.086 191.643 184.01C191.643 183.935 191.643 183.857 191.639 183.782Z" fill="white"/>
<path d="M203.627 184.239C203.625 184.163 203.625 184.088 203.625 184.01C203.625 183.933 203.625 183.857 203.627 183.782C203.665 182.154 204.101 180.56 204.897 179.137C205.694 177.714 206.826 176.503 208.198 175.61C208.102 175.489 208.005 175.372 207.903 175.256C206.479 176.192 205.305 177.457 204.48 178.942C203.656 180.427 203.206 182.087 203.169 183.782C203.164 183.857 203.164 183.935 203.164 184.01C203.164 184.086 203.164 184.163 203.169 184.239C203.205 185.923 203.65 187.573 204.465 189.05C205.28 190.528 206.441 191.789 207.85 192.728C207.952 192.612 208.051 192.495 208.145 192.374C206.788 191.479 205.668 190.272 204.882 188.855C204.095 187.439 203.665 185.855 203.627 184.239Z" fill="white"/>
<path d="M222 197.365H0V197.877H222V197.365Z" fill="#2F2E41"/>
<path d="M209.267 95.0289C209.311 119.403 199.881 142.855 182.938 160.511C182.823 160.632 182.706 160.753 182.588 160.874C173.647 170.119 162.913 177.476 151.033 182.504C139.153 187.532 126.37 190.126 113.453 190.131C100.537 190.136 87.7524 187.551 75.8681 182.533C63.9838 177.514 53.2448 170.165 44.2961 160.927C44.1786 160.806 44.061 160.685 43.9458 160.563C27.0634 142.949 17.6238 119.591 17.5664 95.2888C17.509 70.9861 26.8382 47.5846 43.6372 29.8922C43.75 29.7687 43.8675 29.6476 43.985 29.5264C52.9336 20.2011 63.6986 12.7756 75.6274 7.70009C87.5561 2.62463 100.4 0.0050061 113.38 6.80295e-05C126.36 -0.00487004 139.206 2.60498 151.138 7.67137C163.071 12.7377 173.842 20.1551 182.798 29.4736C182.915 29.5947 183.033 29.7158 183.146 29.8391C199.944 47.4528 209.292 70.7842 209.267 95.0289Z" fill="#3F3D56"/>
<path d="M209.267 94.8369H17.5662V95.2939H209.267V94.8369Z" fill="white"/>
<path d="M113.647 6.10352e-05H113.186V190.131H113.647V6.10352e-05Z" fill="white"/>
<path d="M71.493 63.7326C67.3839 54.0944 61.4272 45.3392 53.9535 37.9528C50.8622 34.8852 47.5288 32.0674 43.985 29.5264C43.8675 29.6476 43.7501 29.7688 43.6372 29.8922C64.1102 44.5464 77.4625 68.4082 77.4729 95.3076C77.4832 122.093 64.2623 145.878 43.9458 160.563C44.0611 160.685 44.1786 160.806 44.2962 160.927C47.7409 158.432 50.9846 155.675 53.9979 152.68C65.4968 141.257 73.3026 126.695 76.4188 110.852C79.535 95.009 77.8201 78.6045 71.493 63.7326Z" fill="white"/>
<path d="M149.361 95.2802C149.35 68.3809 162.684 44.5089 183.146 29.8391C183.033 29.7158 182.915 29.5947 182.798 29.4736C172.329 36.9884 163.803 46.8543 157.917 58.2643C152.031 69.6742 148.952 82.3041 148.931 95.1209C148.911 107.938 151.95 120.577 157.8 132.006C163.649 143.434 172.144 153.326 182.588 160.874C182.706 160.753 182.823 160.632 182.938 160.511C162.613 145.84 149.371 122.065 149.361 95.2802Z" fill="white"/>
<path d="M90.0799 160.976L89.4414 173.641L96.1452 174.907L98.0606 162.876L90.0799 160.976Z" fill="#9D616A"/>
<path d="M123.28 165.092L124.876 175.541H130.941L129.665 164.459L123.28 165.092Z" fill="#9D616A"/>
<path d="M91.3568 136.597L90.0799 151.161L88.803 163.509C88.803 163.509 93.5915 161.609 98.0607 164.459C98.0607 164.459 100.934 163.826 100.295 151.478L103.168 138.496L91.3568 136.597Z" fill="#EFEFEF"/>
<path d="M117.215 141.346C117.215 141.346 119.13 152.744 120.088 153.694C120.088 153.694 121.669 163.887 122.437 166.464C122.483 166.647 122.552 166.825 122.642 166.992C123.28 167.942 130.303 170.158 130.622 166.359C130.942 162.559 131.899 156.227 128.707 151.478L126.792 139.446L117.215 141.346Z" fill="#EFEFEF"/>
<path d="M136.528 139.921C136.209 143.404 118.651 142.771 115.459 142.771C114.45 142.771 113.154 142.616 112.509 140.887C111.405 137.933 110.798 133.617 110.594 131.93C110.511 133.494 109.783 137.281 107.963 139.706C106.855 141.188 105.023 140.893 103.009 140.554C99.6632 139.991 93.0136 137.939 91.1972 138.338C88.3241 138.971 84.8668 139.035 84.8126 138.338C84.7877 137.957 84.7899 137.576 84.8189 137.195C85.2403 130.647 91.3568 112.898 91.3568 111.584C91.3568 110.001 94.2299 103.352 94.2299 103.352L123.599 99.8692C123.599 99.8692 135.232 130.993 136.831 138.655C136.969 139.316 136.554 139.646 136.528 139.921Z" fill="#EFEFEF"/>
<path d="M97.103 173.324L88.803 171.741L89.6011 184.881L96.1453 189.472C96.1453 189.472 95.5069 176.807 97.103 173.324Z" fill="#EFEFEF"/>
<path d="M130.942 172.374C130.942 172.374 126.792 174.907 123.28 172.374L126.153 184.089L130.942 183.456C130.942 183.456 133.176 176.49 130.942 172.374Z" fill="#EFEFEF"/>
<path d="M131.899 182.19C131.899 182.19 125.195 182.506 125.195 183.139V193.588C125.195 194.538 126.472 195.804 126.153 196.437C125.834 197.071 128.069 198.654 133.176 197.704C138.284 196.754 136.369 193.588 136.369 193.588C136.369 193.588 131.261 184.723 131.899 182.19Z" fill="#2F2E41"/>
<path d="M88.6434 182.348C88.6434 182.348 96.305 182.506 96.305 183.139V193.588C96.305 194.538 95.028 195.804 95.3473 196.437C95.6665 197.071 93.4319 198.654 88.3242 197.704C83.2165 196.754 85.1318 193.588 85.1318 193.588C85.1318 193.588 89.2819 184.881 88.6434 182.348Z" fill="#2F2E41"/>
<path d="M137.007 140.08C136.688 143.562 118.172 143.879 114.98 143.879C113.971 143.879 113.154 142.616 112.509 140.887C115.935 140.212 130.667 137.461 136.831 138.655C136.949 139.121 137.008 139.599 137.007 140.08Z" fill="#E97462"/>
<path d="M107.963 139.706C106.855 141.188 105.342 142.16 103.328 141.821C99.9825 141.257 93.0136 139.839 91.1972 140.238C88.3241 140.871 84.8668 139.035 84.8126 138.338C84.7877 137.957 84.7899 137.576 84.8189 137.195C91.5387 137.015 103.44 137.094 107.963 139.706Z" fill="#E97462"/>
<path d="M95.5068 61.5585C95.5068 61.5585 89.7607 59.6588 84.653 65.3579L83.6953 67.2576C83.6953 67.2576 76.3529 69.474 74.1183 71.0571C74.1183 71.0571 67.4144 69.474 59.1144 71.0571L50.8144 69.1574C50.8144 69.1574 34.8527 58.0757 33.2566 65.0413C31.6604 72.0069 48.2605 74.5398 48.2605 74.5398L61.9875 78.3392C61.9875 78.3392 72.5221 80.8722 76.6722 78.9725C76.6722 78.9725 88.4837 78.3392 90.7184 73.9066L95.5068 76.1229V61.5585Z" fill="#9D616A"/>
<path d="M115.299 59.9754C115.299 59.9754 127.111 58.709 131.58 64.7247L140.838 67.2576C140.838 67.2576 151.053 65.3579 154.884 66.3078L163.184 64.0915C163.184 64.0915 171.165 51.4268 175.634 54.9096C180.103 58.3924 165.1 69.474 165.1 69.474L144.988 76.1229C144.988 76.1229 129.346 77.3894 126.153 71.6903L122.642 79.6057L109.234 76.4395L115.299 59.9754Z" fill="#9D616A"/>
<path d="M104.126 58.3924C108.886 58.3924 112.745 54.565 112.745 49.8437C112.745 45.1224 108.886 41.295 104.126 41.295C99.3658 41.295 95.5068 45.1224 95.5068 49.8437C95.5068 54.565 99.3658 58.3924 104.126 58.3924Z" fill="#9D616A"/>
<path d="M99.6569 54.9095V61.8751L102.849 72.9567L112.426 61.8751C112.426 61.8751 109.872 54.2763 109.872 53.0098C109.872 51.7434 99.6569 54.9095 99.6569 54.9095Z" fill="#9D616A"/>
<path d="M125.036 100.661C125.036 100.661 124.879 101.804 123.427 101.908C120.519 102.12 115.622 102.611 112.426 103.669C107.638 105.252 93.2722 105.252 93.2722 105.252L92.3401 76.5725L92.7934 74.3815C92.4742 71.8486 95.028 61.7168 95.028 61.7168L96.8923 60.3522L98.6385 59.9786L99.178 60.4504C99.178 64.6677 103.328 68.6824 103.328 68.6824C109.393 65.8328 111.947 59.5005 111.947 59.5005L113.745 59.2377L115.625 59.4467L117.326 59.6366L116.736 60.1337L116.417 60.767C116.397 60.805 116.432 60.729 116.417 60.767C111.769 70.5473 117.381 74.9704 120.886 76.9144C122.338 77.725 122.482 78.4975 122.482 78.4975C122.482 78.4975 123.794 78.1081 123.759 79.4474C123.654 83.7819 122.859 93.5685 124.078 96.2281C125.674 99.7108 125.036 100.661 125.036 100.661Z" fill="#EFEFEF"/>
<path d="M95.028 44.0644C95.2346 43.3619 95.4775 42.6704 95.7558 41.9927C96.1197 41.1641 95.7558 38.678 96.1197 38.678H97.5754L99.3951 37.0207L100.487 37.8494L101.943 37.0207L103.762 37.8494L105.582 37.0207L108.493 39.0924L109.221 38.678L109.949 39.921H110.313L111.768 41.9927H112.496V44.0644H113.224V49.4508L112.266 53.1682L111.947 51.3441C111.947 51.3193 111.939 51.295 111.924 51.2751C111.909 51.2552 111.888 51.2406 111.864 51.2336C111.84 51.2266 111.814 51.2275 111.791 51.2362C111.767 51.2449 111.747 51.2609 111.733 51.2819L111.041 52.3511L110.596 50.6643C109.956 48.1378 108.454 45.909 106.345 44.3566C103.652 42.4185 99.759 41.4955 95.7558 46.9648L95.028 44.0644Z" fill="#2F2E41"/>
<path d="M96.8923 60.3522C96.2858 64.0091 94.4534 74.1219 92.3401 76.5725L92.3145 75.8063C91.9953 73.2733 94.2299 60.9253 94.2299 60.9253L96.8923 60.3522Z" fill="#E97462"/>
<path d="M113.745 59.2377C112.142 62.2392 107.551 69.9869 103.168 69.4739C98.9386 68.98 98.5874 62.7173 98.6385 59.9786L99.6568 59.7601C99.6568 63.9775 103.488 67.5742 103.488 67.5742C109.553 64.7247 111.484 58.9876 111.484 58.9876L113.745 59.2377Z" fill="#E97462"/>
<path d="M124.238 77.3894C124.238 77.3894 124.203 78.2379 124.168 79.5772C123.279 79.5298 122.398 79.394 121.537 79.1719C111.676 76.5915 114.559 63.3094 115.625 59.4467L117.326 59.6366H117.33C117.377 59.681 117.428 59.7285 117.48 59.776C112.832 69.5563 118.134 74.3118 121.639 76.2558C122.462 76.7243 123.333 77.1043 124.238 77.3894Z" fill="#E97462"/>
<path d="M125.834 101.769C125.834 101.769 124.879 101.804 123.427 101.908C122.698 99.2568 122.116 96.5679 121.684 93.8534C121.263 90.9279 121.397 83.7312 121.537 79.1719C121.575 77.9783 121.61 76.9619 121.639 76.2559C122.462 76.7243 123.333 77.1043 124.238 77.3894C124.238 77.3894 124.203 78.2379 124.168 79.5772C124.062 83.9117 123.976 93.4102 125.195 96.0698C126.792 99.5525 125.834 101.769 125.834 101.769Z" fill="#E97462"/>
<path d="M95.9857 80.056C95.9857 80.056 106.201 75.2086 116.097 80.056H95.9857Z" fill="#E97462"/>
<path d="M93.8319 105.349C93.8319 105.349 96.8272 105.12 104.2 105.806C111.573 106.492 123.785 101.921 123.785 101.921" fill="#CACACA"/>
<path d="M53.515 54.2759V54.493C53.515 54.5501 53.515 54.6095 53.5104 54.6666C53.455 57.6289 52.4123 60.4895 50.545 62.802C50.4505 62.9232 50.3514 63.0397 50.2501 63.1562C50.098 63.3345 49.9413 63.5059 49.78 63.675C49.7662 63.6887 49.7524 63.7047 49.7363 63.7184L49.7294 63.7253C49.7109 63.7436 49.6925 63.7641 49.6741 63.7824C49.3906 64.0726 49.0934 64.3507 48.7824 64.6165C48.7201 64.6691 48.6556 64.7239 48.5888 64.7765C46.1832 66.7577 43.1605 67.8526 40.0337 67.8752C40.0106 67.8775 39.9853 67.8775 39.9622 67.8775H39.8816C39.8586 67.8775 39.8355 67.8775 39.8125 67.8752C39.7319 67.8752 39.6535 67.873 39.5729 67.8707C36.4454 67.7973 33.4401 66.6514 31.0685 64.6279C31.004 64.5754 30.9394 64.5205 30.8772 64.4634C30.6307 64.2486 30.3933 64.0224 30.1652 63.7893C30.1468 63.771 30.1284 63.7504 30.1099 63.7321L30.103 63.7253C30.0869 63.7116 30.0731 63.6956 30.0592 63.6819C29.8657 63.4808 29.6791 63.2728 29.4994 63.0603C29.4003 62.9437 29.3035 62.8249 29.2091 62.7038C27.3892 60.4085 26.3753 57.5862 26.322 54.6666C26.3174 54.6118 26.3174 54.5547 26.3174 54.4975V54.285C26.3174 54.2599 26.3174 54.2347 26.3197 54.2096C26.3523 51.2843 27.3484 48.4499 29.156 46.1382C29.2505 46.0171 29.3473 45.8982 29.4464 45.7817C29.6284 45.5623 29.8196 45.3498 30.0155 45.1418C30.0293 45.1258 30.0431 45.1121 30.0592 45.0961C30.0592 45.0938 30.0615 45.0916 30.0638 45.0893C30.0823 45.071 30.1007 45.0504 30.1214 45.0321C30.3772 44.7693 30.6437 44.5164 30.921 44.2734C30.9832 44.2163 31.0477 44.1615 31.1122 44.1089C33.5374 42.0602 36.6131 40.9249 39.7987 40.9027C39.8217 40.9005 39.8471 40.9005 39.8701 40.9005H40.0199C43.1318 40.9198 46.1422 42.0011 48.545 43.9627C48.6095 44.0175 48.6741 44.0701 48.7386 44.1249C49.075 44.4083 49.3976 44.7099 49.704 45.0253C49.7224 45.0436 49.7409 45.0641 49.7593 45.0824L49.7639 45.087C49.78 45.1007 49.7962 45.119 49.81 45.1327C49.9805 45.3109 50.1441 45.496 50.3031 45.6834C50.4045 45.8 50.5012 45.9165 50.598 46.0376C52.4548 48.3666 53.4799 51.2407 53.5127 54.2096C53.5146 54.2316 53.5154 54.2538 53.515 54.2759Z" fill="#E97462"/>
<path d="M40.0337 40.9553H39.5729V67.921H40.0337V40.9553Z" fill="white"/>
<path d="M53.515 54.2096H26.2091V54.6667H53.515V54.2096Z" fill="white"/>
<path d="M34.0385 54.2096C34.0023 52.5442 33.567 50.9112 32.7685 49.4457C31.97 47.9802 30.8313 46.7243 29.4464 45.7817C29.3474 45.8983 29.2506 46.0171 29.1561 46.1382C30.4875 47.0377 31.5834 48.2392 32.3528 49.643C33.1222 51.0467 33.5429 52.6123 33.58 54.2096C33.5823 54.285 33.5823 54.3604 33.5823 54.4381C33.5823 54.5158 33.5823 54.5912 33.58 54.6667C33.5426 56.2534 33.1271 57.8088 32.3674 59.2057C31.6077 60.6026 30.5255 61.8013 29.2091 62.7038C29.3036 62.8249 29.4003 62.9437 29.4994 63.0603C30.8694 62.1149 31.9946 60.8618 32.7835 59.4031C33.5723 57.9445 34.0023 56.3215 34.0385 54.6667C34.0431 54.5912 34.0431 54.5135 34.0431 54.4381C34.0431 54.3627 34.0431 54.285 34.0385 54.2096Z" fill="white"/>
<path d="M46.0267 54.6667C46.0244 54.5912 46.0244 54.5158 46.0244 54.4381C46.0244 54.3604 46.0244 54.285 46.0267 54.2096C46.0648 52.5822 46.5007 50.9883 47.2969 49.5649C48.0932 48.1414 49.226 46.931 50.5981 46.0377C50.5013 45.9165 50.4045 45.8 50.3032 45.6834C48.8789 46.6202 47.7043 47.885 46.8798 49.3697C46.0553 50.8544 45.6053 52.515 45.5682 54.2096C45.5636 54.285 45.5636 54.3627 45.5636 54.4381C45.5636 54.5135 45.5636 54.5912 45.5682 54.6667C45.605 56.3504 46.0496 58.0007 46.8644 59.4782C47.6793 60.9558 48.8405 62.2173 50.2502 63.1563C50.3515 63.0397 50.4506 62.9232 50.5451 62.8021C49.1877 61.9065 48.0681 60.6993 47.2815 59.2831C46.495 57.8668 46.0645 56.2832 46.0267 54.6667Z" fill="white"/>
</g>
<defs>
<clipPath id="clip0_81_5">
<rect width="222" height="198" fill="white"/>
</clipPath>
</defs>
</svg>
