<svg width="170" height="248" viewBox="0 0 170 248" fill="none" xmlns="http://www.w3.org/2000/svg">
<g clip-path="url(#clip0_68_97)">
<path d="M1.26501 164.941C1.01444 164.941 0.811676 164.789 0.811676 164.6V68.6268C0.811676 44.4755 26.9646 24.8274 59.1114 24.8274H157.547C157.798 24.8274 158 24.9797 158 25.168C158 25.3562 157.798 34.7042 157.547 34.7042L59.1114 25.5085C27.4649 25.5085 1.71834 44.8514 1.71834 68.6268V164.6C1.71834 164.789 1.51558 164.941 1.26501 164.941Z" fill="#3F3D56"/>
<path d="M157.891 0C158.142 0 158.345 0.152331 158.345 0.340579V96.3141C158.345 120.465 132.192 140.114 100.045 140.114H1.60943C1.35886 140.114 1.1561 139.961 1.1561 139.773C1.1561 139.585 1.35886 139.432 1.60943 139.432H100.045C131.691 139.432 157.438 120.09 157.438 96.3141V0.340579C157.438 0.152331 157.641 0 157.891 0Z" fill="#3F3D56"/>
<path d="M112.235 91.0377C112.235 89.5659 113.014 88.1258 114.479 87.0538L135.129 71.9416C135.667 70.4014 136.697 68.9609 138.108 67.7732C139.814 66.2991 141.907 65.2298 144.003 64.7628C146.134 64.2872 148.018 64.4891 149.307 65.3309C151.937 67.0481 151.192 70.9395 147.646 74.004C146.28 75.2184 144.525 76.1849 142.571 76.7999L123.826 91.3167L134.146 103.065C136.144 104.816 136.587 107.239 135.285 109.372C134.027 111.432 131.397 112.716 128.422 112.721C125.238 112.727 122.42 111.296 121.241 109.075L112.766 93.1071C112.408 92.4339 112.235 91.7321 112.235 91.0377Z" fill="#FFB6B6"/>
<path d="M129.558 77.2766C138.571 77.2766 145.878 71.7872 145.878 65.0157C145.878 58.2443 138.571 52.7549 129.558 52.7549C120.545 52.7549 113.238 58.2443 113.238 65.0157C113.238 71.7872 120.545 77.2766 129.558 77.2766Z" fill="#3F3D56"/>
<path d="M138.058 97.8288L125.911 104.785L141.322 112.738L149.055 100.284L138.058 97.8288Z" fill="#FFB6B6"/>
<path d="M144.684 103.814C151.786 103.814 157.544 99.4885 157.544 94.1528C157.544 88.817 151.786 84.4916 144.684 84.4916C137.582 84.4916 131.824 88.817 131.824 94.1528C131.824 99.4885 137.582 103.814 144.684 103.814Z" fill="#FFB6B6"/>
<path d="M145.684 104.979C145.684 104.979 148.582 98.0099 146.709 96.6927C144.837 95.3755 144.896 96.7375 144.896 96.7375L147.271 90.0218C147.271 90.0218 146.14 86.1197 138.643 85.5831C138.643 85.5831 141.306 81.7877 145.177 82.4139C149.047 83.0402 149.292 83.7559 150.936 83.5148C152.581 83.2737 155.988 85.5154 155.988 85.5154C155.988 85.5154 157.734 84.4454 157.536 85.7658C157.338 87.0862 159.193 89.2444 159.193 89.2444C159.193 89.2444 160.249 88.7497 159.958 90.1349C159.667 91.5201 161.034 92.2483 161.034 92.2483C161.034 92.2483 159.225 93.1257 159.805 93.8179C160.385 94.5101 162.705 95.0543 161.828 95.7577C160.951 96.4611 161.61 98.0891 158.642 99.8066C155.675 101.524 145.684 104.979 145.684 104.979Z" fill="#2F2E41"/>
<path d="M153.303 230.91L153.195 230.826L122.838 207.131C119.9 204.838 118.478 201.707 118.935 198.543L120.519 187.594L135.893 189.694L136.481 196.596L162.303 228.063L153.303 230.91Z" fill="#FFB6B6"/>
<path d="M156.991 248C156.502 248 156.018 247.906 155.576 247.722C154.508 247.276 153.918 246.366 154.108 245.459L155.163 240.439L149.715 231.569L151.152 228.33L159.379 227.987L162.121 225.927L165.192 226.328C167.029 226.568 168.559 227.426 169.389 228.68C170.218 229.935 170.203 231.368 169.348 232.613L159.595 246.809C159.229 247.342 158.606 247.731 157.842 247.905C157.562 247.968 157.276 248 156.991 248Z" fill="#2F2E41"/>
<path d="M141.571 164.635L135.678 192.563L107.118 202.78L102.585 175.534L141.571 164.635Z" fill="#2F2E41"/>
<path d="M125.196 222.736L125.088 222.652L94.7316 198.957C91.7933 196.664 90.3709 193.533 90.8287 190.369L92.4122 179.42L107.786 181.52L108.374 188.423L134.196 219.889L125.196 222.736Z" fill="#FFB6B6"/>
<path d="M128.885 239.826C128.395 239.826 127.911 239.732 127.47 239.548C126.401 239.102 125.811 238.192 126.001 237.285L127.057 232.265L121.608 223.395L123.045 220.156L131.272 219.813L134.014 217.753L137.085 218.154C138.923 218.394 140.452 219.252 141.282 220.506C142.111 221.761 142.096 223.194 141.241 224.439L131.488 238.635C131.122 239.168 130.5 239.557 129.736 239.731C129.455 239.795 129.169 239.826 128.885 239.826Z" fill="#2F2E41"/>
<path d="M109.085 155.28L105.895 161.799L91.5685 179.377C91.1475 179.893 91.0797 180.511 91.3826 181.072C91.6854 181.633 92.3065 182.041 93.0865 182.191L124.704 188.282L139.341 172.84C143.516 168.435 145.676 163.043 145.432 157.64L109.085 155.28Z" fill="#2F2E41"/>
<path d="M141.717 161.911H105.435L105.456 161.726L110.036 120.014C110.637 114.547 114.4 109.595 120.36 106.427L120.423 106.394L145.223 107.084L139.839 144.68L146.999 155.509C147.913 156.892 147.812 158.502 146.729 159.814C145.646 161.127 143.772 161.911 141.717 161.911Z" fill="#370E4A"/>
<path d="M131.795 114.786C129.724 114.786 127.705 114.155 126.213 112.971L110.482 100.487C108.413 98.8449 107.87 96.4505 109.097 94.3864L120.85 74.6102C120.592 73.0297 120.841 71.4053 121.569 69.9096C122.428 68.0667 123.847 66.4918 125.564 65.4761C127.311 64.442 129.161 64.1061 130.772 64.5311C134.061 65.3966 135.283 69.2188 133.496 73.0513C132.824 74.5583 131.669 75.9439 130.156 77.0584L119.879 95.752L135.248 103.804C137.965 104.875 139.569 107.003 139.408 109.347C139.253 111.611 137.441 113.534 134.678 114.365C133.739 114.648 132.761 114.786 131.795 114.786Z" fill="#FFB6B6"/>
<path d="M18.1608 77.8846C22.1332 81.4579 23.675 86.185 24.7348 90.7721C25.1222 92.4489 25.4611 94.132 25.7514 95.8198C26.835 102.12 27.1994 108.696 24.2707 114.656C23.529 116.165 22.7773 118.198 24.5474 119.104C25.9534 119.823 28.0105 119.076 28.7761 117.935C29.5417 116.793 29.3894 115.441 29.2188 114.17C27.3554 115.673 27.9369 118.458 30.3237 119.46C32.7104 120.463 36.1721 119.377 36.9015 117.397C37.2814 119.51 40.0409 121.221 42.8739 121.1C45.707 120.98 48.1921 119.046 48.2525 116.915C46.7836 118.087 47.51 120.211 49.3333 121.057C51.1566 121.903 53.5871 121.665 55.4573 120.879C57.3275 120.092 58.7592 118.841 60.1498 117.616C58.3165 118.467 57.8872 120.621 59.3083 121.838C60.7295 123.055 63.6275 123.015 64.989 121.76C66.111 120.726 66.1051 119.217 65.5576 117.948C65.01 116.678 64.0022 115.554 63.2432 114.348C59.7673 108.824 61.8147 102.273 64.6862 96.5568C67.5578 90.8404 71.2622 85.0918 70.952 78.9864" fill="white"/>
<path d="M17.9204 78.0653C20.8334 80.7104 22.4201 83.9855 23.4587 87.2897C24.5841 90.8699 25.286 94.5559 25.7816 98.213C26.2832 101.914 26.4495 105.682 25.7023 109.371C25.342 111.151 24.7597 112.895 23.9429 114.588C23.3797 115.755 22.7004 117.222 23.3962 118.438C24.2165 119.873 26.5138 119.894 27.9864 119.033C29.9498 117.884 29.7805 115.837 29.5588 114.17C29.532 113.968 29.193 113.81 28.9784 113.989C27.4462 115.272 27.4031 117.309 28.7222 118.7C30.1204 120.173 32.7148 120.44 34.788 119.634C35.9512 119.182 36.8552 118.412 37.2293 117.465H36.5736C37.0278 119.716 39.9738 121.552 43.031 121.347C46.0239 121.146 48.4817 119.159 48.5925 116.915C48.6031 116.699 48.2078 116.57 48.0121 116.734C47.0232 117.565 46.9163 118.731 47.4679 119.739C48.0775 120.853 49.394 121.58 50.9645 121.78C55.0046 122.292 58.0217 119.883 60.3902 117.797C60.626 117.589 60.3226 117.228 59.9782 117.396C58.4643 118.134 57.7969 119.604 58.2723 120.903C58.7721 122.268 60.5455 123.07 62.3853 122.974C64.4542 122.866 65.9235 121.726 66.2009 120.202C66.5371 118.356 65.2791 116.711 64.1649 115.144C58.8665 107.697 63.5404 99.4776 67.267 92.29C69.4715 88.0383 71.5017 83.6123 71.292 78.9864C71.2772 78.6585 70.5971 78.657 70.612 78.9864C70.9602 86.6695 65.2266 93.3963 62.5515 100.579C61.2823 103.987 60.5736 107.624 61.4908 111.134C61.9471 112.88 62.0319 114.715 63.1449 116.273C64.1952 117.743 66.1705 119.25 65.2555 120.927C64.4054 122.485 61.5603 122.987 59.8518 121.884C58.2223 120.832 58.5709 118.69 60.3214 117.837L59.9094 117.436C57.8433 119.255 56.1866 119.018 52.7182 118.998C51.2259 118.989 49.009 120.843 48.2767 119.834C47.655 118.978 47.59 117.854 48.4929 117.095L47.9125 116.915C47.814 118.909 45.5537 120.725 42.8739 120.845C40.1412 120.967 37.6329 119.33 37.2293 117.329C37.1762 117.066 36.6613 117.107 36.5736 117.329C35.8515 119.157 32.6673 120.191 30.4354 119.213C28.2587 118.26 27.7941 115.744 29.4592 114.35L28.8788 114.17C29.0831 115.706 29.3423 117.731 27.3966 118.728C26.6586 119.106 25.6618 119.294 24.8447 118.943C24.0482 118.6 25.0548 117.603 25.0649 116.954C25.0878 115.492 24.8044 114.416 25.3357 113.036C25.9704 111.388 26.3786 109.693 26.6181 107.988C27.1069 104.506 26.8748 100.988 26.3631 97.5161C25.855 94.0694 25.1899 90.6018 24.1362 87.2232C23.0695 83.803 21.413 80.4389 18.4012 77.704C18.122 77.4505 17.6433 77.8137 17.9204 78.0653Z" fill="#3F3D56"/>
<path d="M44.5582 82.2425C30.713 82.2425 15.9983 80.5117 15.9983 77.3041C15.9983 74.0965 30.713 72.3657 44.5582 72.3657C58.4035 72.3657 73.1182 74.0965 73.1182 77.3041C73.1182 80.5117 58.4035 82.2425 44.5582 82.2425ZM44.5582 73.0469C28.2617 73.0469 16.905 75.2906 16.905 77.3041C16.905 79.3176 28.2617 81.5613 44.5582 81.5613C60.8547 81.5613 72.2115 79.3176 72.2115 77.3041C72.2115 75.2906 60.8547 73.0469 44.5582 73.0469Z" fill="#3F3D56"/>
<path d="M12.8604 87.0269C12.7183 87.0269 12.5757 87.0209 12.4336 87.0086L3.62684 86.2456C1.76614 86.0843 0.329116 84.9019 0.28396 83.4947L0.00107124 74.6862C-0.0246055 73.877 0.412348 73.0964 1.19948 72.544C1.98705 71.9915 3.05486 71.7181 4.12666 71.7926L17.3393 72.7159C18.8299 72.8204 20.0991 73.577 20.5728 74.644L22.6956 79.4287C23.1861 80.5349 22.7106 81.7759 21.5127 82.5166L15.2669 86.38C14.59 86.7987 13.7316 87.0269 12.8604 87.0269Z" fill="#3F3D56"/>
</g>
<defs>
<clipPath id="clip0_68_97">
<rect width="170" height="248" fill="white"/>
</clipPath>
</defs>
</svg>
