<svg width="275" height="228" viewBox="0 0 275 228" fill="none" xmlns="http://www.w3.org/2000/svg">
<g clip-path="url(#clip0_81_68)">
<path d="M202.737 156.789C202.733 170.004 199.362 182.958 193.003 194.204C186.643 205.449 177.545 214.544 166.724 220.471C166.17 220.775 165.61 221.07 165.045 221.357C150.439 228.756 133.848 230.022 118.441 224.914C116.929 224.41 115.44 223.848 113.976 223.23C100.584 217.575 89.2739 207.257 81.7995 193.874C74.325 180.49 71.1032 164.79 72.6333 149.205C74.1635 133.62 80.36 119.021 90.2628 107.671C100.166 96.3202 113.222 88.8519 127.407 86.4232C130.746 85.8592 134.12 85.5765 137.499 85.5775C173.53 85.5775 202.737 117.459 202.737 156.789Z" fill="#F2F2F2"/>
<path d="M207.47 166.938C217.195 155.412 222.199 138.155 216.956 123.568C209.23 138.376 196.955 149.723 182.302 155.603C176.644 157.848 170.136 159.702 167.063 165.353C165.15 168.869 165.015 173.271 165.881 177.249C166.748 181.227 168.529 184.885 170.291 188.493L170.302 189.514C184.075 185.096 197.744 178.464 207.47 166.938Z" fill="#E6E6E6"/>
<path d="M216.663 123.646C215.012 136.491 209.695 148.441 201.468 157.799C199.694 159.792 197.736 161.646 195.472 162.946C193.257 164.196 190.776 164.774 188.286 164.623C185.962 164.532 183.595 164.146 181.291 164.674C178.863 165.23 176.942 166.942 175.695 169.25C174.17 172.075 173.666 175.329 173.274 178.53C172.839 182.084 172.439 185.783 170.579 188.842C170.354 189.212 170.894 189.572 171.119 189.202C174.354 183.88 173.264 177.084 175.445 171.346C176.462 168.669 178.225 166.31 180.863 165.499C183.17 164.79 185.612 165.186 187.964 165.3C190.434 165.419 192.785 165.088 195.047 163.946C197.36 162.778 199.389 161.005 201.202 159.07C205.282 154.648 208.7 149.554 211.331 143.974C214.366 137.624 216.383 130.753 217.295 123.66C217.352 123.221 216.719 123.21 216.663 123.646Z" fill="white"/>
<path d="M204.28 154.956C205.906 156.25 207.9 156.87 209.906 156.707C211.912 156.544 213.8 155.607 215.232 154.065C215.521 153.752 215.089 153.247 214.8 153.561C213.469 155 211.71 155.872 209.841 156.02C207.973 156.167 206.117 155.581 204.61 154.367C204.282 154.103 203.954 154.694 204.28 154.956Z" fill="white"/>
<path d="M189.459 164.838C188.786 160.41 189.666 155.867 191.925 152.115C192.149 151.744 191.609 151.384 191.385 151.755C189.041 155.663 188.134 160.393 188.844 165C188.912 165.439 189.527 165.275 189.459 164.838Z" fill="white"/>
<path d="M213.529 137.558C212.804 137.2 212.172 136.652 211.69 135.962C211.207 135.272 210.889 134.462 210.765 133.605C210.702 133.165 210.087 133.33 210.149 133.767C210.291 134.713 210.644 135.607 211.175 136.371C211.707 137.134 212.402 137.744 213.199 138.147C213.271 138.192 213.356 138.205 213.437 138.183C213.518 138.162 213.588 138.108 213.634 138.032C213.677 137.954 213.69 137.86 213.671 137.771C213.651 137.683 213.6 137.606 213.529 137.558Z" fill="white"/>
<path d="M170.773 107.026C170.805 107.302 170.838 107.578 170.866 107.858C171.279 111.568 171.416 115.31 171.275 119.044C171.268 119.333 171.257 119.626 171.243 119.914C170.814 128.908 168.86 137.737 165.478 145.952C164.13 149.22 162.556 152.371 160.77 155.378C158.303 159.531 155.325 163.819 154.289 168.481C154.176 168.966 154.091 169.459 154.033 169.955L169.161 189.45C169.215 189.475 169.266 189.505 169.321 189.53L169.892 190.339C169.995 190.191 170.097 190.035 170.2 189.887C170.259 189.801 170.315 189.711 170.375 189.625C170.413 189.567 170.452 189.508 170.49 189.458C170.503 189.439 170.515 189.419 170.524 189.403C170.562 189.353 170.592 189.302 170.626 189.255C171.204 188.385 171.777 187.509 172.345 186.627C172.349 186.624 172.349 186.624 172.35 186.615C176.664 179.884 180.502 172.7 183.219 165.108C183.301 164.88 183.386 164.648 183.461 164.41C184.668 160.981 185.617 157.45 186.297 153.852C186.663 151.881 186.938 149.89 187.121 147.888C187.582 142.715 187.296 137.495 186.271 132.419C184.228 122.3 179.242 113.007 171.378 107.445C171.177 107.303 170.979 107.165 170.773 107.026Z" fill="#E6E6E6"/>
<path d="M170.581 107.28C176.347 118.62 178.693 131.656 177.286 144.535C176.97 147.292 176.428 150.059 175.338 152.585C174.258 155.038 172.596 157.131 170.525 158.646C168.62 160.101 166.516 161.349 164.968 163.284C163.336 165.324 162.746 167.953 163.024 170.615C163.364 173.873 164.757 176.802 166.209 179.616C167.822 182.739 169.543 185.956 169.745 189.62C169.77 190.064 170.4 189.997 170.375 189.554C170.023 183.178 165.404 178.469 163.98 172.454C163.316 169.647 163.423 166.605 165.082 164.224C166.532 162.142 168.7 160.853 170.641 159.398C172.679 157.87 174.374 156.061 175.55 153.663C176.753 151.21 177.394 148.461 177.774 145.724C178.594 139.513 178.513 133.199 177.536 127.014C176.456 119.949 174.277 113.138 171.094 106.875C170.896 106.487 170.385 106.895 170.581 107.28Z" fill="white"/>
<path d="M177.963 140.417C179.975 140.381 181.909 139.566 183.421 138.117C184.933 136.668 185.924 134.68 186.217 132.508C186.275 132.068 185.651 131.949 185.593 132.389C185.324 134.413 184.401 136.265 182.99 137.611C181.58 138.957 179.775 139.708 177.902 139.729C177.495 139.734 177.558 140.422 177.963 140.417Z" fill="white"/>
<path d="M171.58 158.047C168.6 154.954 166.797 150.748 166.531 146.268C166.505 145.824 165.876 145.891 165.902 146.335C166.186 150.996 168.07 155.369 171.178 158.581C171.475 158.887 171.875 158.352 171.58 158.047Z" fill="white"/>
<path d="M175.752 120.446C174.976 120.637 174.169 120.615 173.403 120.381C172.638 120.147 171.937 119.71 171.364 119.107C171.072 118.797 170.672 119.333 170.962 119.641C171.598 120.303 172.372 120.785 173.218 121.046C174.063 121.306 174.954 121.336 175.813 121.134C175.895 121.122 175.971 121.077 176.023 121.007C176.076 120.937 176.103 120.847 176.097 120.757C176.089 120.666 176.048 120.582 175.983 120.524C175.918 120.466 175.835 120.438 175.752 120.446Z" fill="white"/>
<path d="M274.656 13.8342H0.344324C0.252307 13.832 0.164747 13.7905 0.100391 13.7187C0.0360346 13.6468 0 13.5504 0 13.4499C0 13.3494 0.0360346 13.253 0.100391 13.1811C0.164747 13.1093 0.252307 13.0678 0.344324 13.0656H274.656C274.748 13.0678 274.835 13.1093 274.9 13.1811C274.964 13.253 275 13.3494 275 13.4499C275 13.5504 274.964 13.6468 274.9 13.7187C274.835 13.7905 274.748 13.832 274.656 13.8342Z" fill="#CACACA"/>
<path d="M8.09551 8.45424C10.1876 8.45424 11.8836 6.56169 11.8836 4.22712C11.8836 1.89255 10.1876 0 8.09551 0C6.00338 0 4.30737 1.89255 4.30737 4.22712C4.30737 6.56169 6.00338 8.45424 8.09551 8.45424Z" fill="#3F3D56"/>
<path d="M21.1819 8.45424C23.2741 8.45424 24.9701 6.56169 24.9701 4.22712C24.9701 1.89255 23.2741 0 21.1819 0C19.0898 0 17.3938 1.89255 17.3938 4.22712C17.3938 6.56169 19.0898 8.45424 21.1819 8.45424Z" fill="#3F3D56"/>
<path d="M34.2681 8.45424C36.3602 8.45424 38.0563 6.56169 38.0563 4.22712C38.0563 1.89255 36.3602 0 34.2681 0C32.176 0 30.48 1.89255 30.48 4.22712C30.48 6.56169 32.176 8.45424 34.2681 8.45424Z" fill="#3F3D56"/>
<path d="M266.815 2.58559H257.517C257.333 2.58118 257.158 2.49827 257.029 2.35461C256.9 2.21096 256.828 2.01799 256.828 1.81703C256.828 1.61606 256.9 1.42309 257.029 1.27944C257.158 1.13578 257.333 1.05288 257.517 1.04846H266.815C266.999 1.05288 267.174 1.13578 267.303 1.27944C267.432 1.42309 267.504 1.61606 267.504 1.81703C267.504 2.01799 267.432 2.21096 267.303 2.35461C267.174 2.49827 266.999 2.58118 266.815 2.58559Z" fill="#3F3D56"/>
<path d="M266.815 5.46774H257.517C257.333 5.4633 257.158 5.38038 257.029 5.23673C256.9 5.09308 256.828 4.90012 256.828 4.69917C256.828 4.49822 256.9 4.30526 257.029 4.16161C257.158 4.01796 257.333 3.93504 257.517 3.9306H266.815C266.999 3.93504 267.174 4.01796 267.303 4.16161C267.432 4.30526 267.504 4.49822 267.504 4.69917C267.504 4.90012 267.432 5.09308 267.303 5.23673C267.174 5.38038 266.999 5.4633 266.815 5.46774Z" fill="#3F3D56"/>
<path d="M266.815 8.34982H257.517C257.333 8.34539 257.158 8.26246 257.029 8.11881C256.9 7.97516 256.828 7.7822 256.828 7.58125C256.828 7.3803 256.9 7.18734 257.029 7.04369C257.158 6.90004 257.333 6.81712 257.517 6.81268H266.815C266.999 6.81712 267.174 6.90004 267.303 7.04369C267.432 7.18734 267.504 7.3803 267.504 7.58125C267.504 7.7822 267.432 7.97516 267.303 8.11881C267.174 8.26246 266.999 8.34539 266.815 8.34982Z" fill="#3F3D56"/>
<path d="M74.3719 185.763C66.6127 176.567 62.6202 162.799 66.8037 151.161C72.9675 162.975 82.7609 172.028 94.4512 176.719C98.9656 178.511 104.158 179.99 106.61 184.498C108.136 187.304 108.244 190.815 107.553 193.989C106.861 197.163 105.44 200.082 104.034 202.96L104.025 203.775C93.0366 200.249 82.1312 194.959 74.3719 185.763Z" fill="#E6E6E6"/>
<path d="M67.0372 151.223C68.3543 161.471 72.5961 171.005 79.16 178.471C80.5469 180.106 82.1612 181.492 83.9435 182.578C85.711 183.575 87.6907 184.037 89.6771 183.916C91.5312 183.843 93.4201 183.535 95.258 183.956C96.1958 184.187 97.0784 184.632 97.8478 185.261C98.6172 185.89 99.2561 186.69 99.7225 187.607C100.939 189.861 101.342 192.457 101.654 195.011C102.001 197.847 102.321 200.798 103.804 203.238C103.984 203.534 103.553 203.821 103.374 203.526C100.793 199.28 101.662 193.858 99.9224 189.28C99.1105 187.144 97.7039 185.262 95.5992 184.615C93.7588 184.049 91.8107 184.365 89.9339 184.456C87.9978 184.605 86.0577 184.234 84.2831 183.376C82.4559 182.392 80.7954 181.077 79.3726 179.485C76.1171 175.958 73.3899 171.894 71.291 167.441C68.8697 162.375 67.2603 156.893 66.5324 151.234C66.4874 150.884 66.9925 150.875 67.0372 151.223Z" fill="white"/>
<path d="M76.9168 176.203C75.6197 177.235 74.0287 177.73 72.428 177.6C70.8273 177.47 69.3211 176.723 68.1784 175.492C67.948 175.243 68.2928 174.84 68.5236 175.09C69.5857 176.238 70.9888 176.934 72.4796 177.052C73.9704 177.17 75.4507 176.702 76.6533 175.733C76.9149 175.523 77.1769 175.994 76.9168 176.203Z" fill="white"/>
<path d="M88.7412 184.087C89.2785 180.554 88.576 176.929 86.7738 173.936C86.595 173.64 87.0258 173.353 87.2044 173.649C89.0745 176.767 89.7985 180.541 89.232 184.216C89.1778 184.567 88.6873 184.436 88.7412 184.087Z" fill="white"/>
<path d="M69.5372 162.322C70.1153 162.037 70.6195 161.599 71.0045 161.049C71.3894 160.499 71.6431 159.852 71.7427 159.168C71.7929 158.818 72.2833 158.949 72.2335 159.297C72.1202 160.052 71.8392 160.766 71.4151 161.375C70.991 161.984 70.4367 162.471 69.8007 162.792C69.743 162.828 69.6751 162.838 69.6106 162.821C69.5462 162.804 69.49 162.761 69.4536 162.701C69.419 162.638 69.4084 162.564 69.424 162.493C69.4397 162.422 69.4803 162.36 69.5372 162.322Z" fill="white"/>
<path d="M103.649 137.963C103.624 138.183 103.598 138.403 103.575 138.626C103.245 141.587 103.136 144.572 103.249 147.551C103.255 147.782 103.263 148.016 103.275 148.245C103.617 155.421 105.176 162.465 107.874 169.02C108.95 171.627 110.205 174.141 111.63 176.54C113.599 179.853 115.974 183.274 116.801 186.994C116.891 187.381 116.959 187.774 117.005 188.17L104.936 203.723C104.892 203.744 104.852 203.767 104.808 203.788L104.352 204.433C104.271 204.314 104.188 204.19 104.107 204.072C104.06 204.004 104.015 203.932 103.967 203.863C103.936 203.817 103.906 203.77 103.875 203.73C103.865 203.714 103.855 203.699 103.848 203.686C103.818 203.646 103.794 203.605 103.767 203.568C103.306 202.874 102.849 202.175 102.395 201.472C102.392 201.469 102.392 201.469 102.391 201.462C98.9491 196.091 95.8872 190.36 93.7197 184.303C93.6546 184.121 93.586 183.935 93.5264 183.746C92.5633 181.01 91.8066 178.193 91.264 175.322C90.9715 173.749 90.7521 172.161 90.6068 170.564C90.2384 166.437 90.467 162.272 91.2844 158.222C92.9148 150.149 96.8925 142.735 103.167 138.297C103.327 138.184 103.485 138.073 103.649 137.963Z" fill="#E6E6E6"/>
<path d="M103.803 138.165C99.2023 147.213 97.3303 157.613 98.453 167.889C98.6587 170.105 99.1832 172.273 100.007 174.311C100.869 176.269 102.195 177.938 103.847 179.147C105.368 180.308 107.046 181.303 108.281 182.847C108.903 183.648 109.362 184.583 109.629 185.591C109.897 186.599 109.966 187.657 109.832 188.697C109.56 191.295 108.45 193.633 107.291 195.877C106.004 198.37 104.631 200.936 104.469 203.859C104.45 204.214 103.947 204.16 103.967 203.806C104.248 198.72 107.933 194.962 109.069 190.163C109.599 187.924 109.514 185.497 108.19 183.597C107.033 181.936 105.303 180.908 103.755 179.747C102.127 178.594 100.782 177.023 99.8384 175.171C98.9219 173.185 98.3218 171.044 98.0636 168.838C97.4099 163.882 97.4741 158.844 98.2539 153.91C99.1152 148.274 100.854 142.839 103.394 137.842C103.551 137.533 103.959 137.858 103.803 138.165Z" fill="white"/>
<path d="M97.9131 164.603C96.3082 164.575 94.7648 163.925 93.5585 162.769C92.3522 161.613 91.5617 160.026 91.328 158.293C91.2818 157.942 91.7792 157.847 91.8254 158.199C92.0403 159.813 92.7769 161.291 93.9022 162.365C95.0275 163.439 96.4674 164.038 97.962 164.055C98.2868 164.059 98.2361 164.607 97.9131 164.603Z" fill="white"/>
<path d="M103.005 178.669C105.383 176.201 106.822 172.846 107.034 169.271C107.054 168.917 107.557 168.971 107.536 169.325C107.309 173.044 105.806 176.533 103.326 179.095C103.09 179.339 102.77 178.912 103.005 178.669Z" fill="white"/>
<path d="M99.6773 148.67C100.296 148.822 100.94 148.805 101.551 148.618C102.162 148.432 102.721 148.082 103.178 147.602C103.411 147.355 103.73 147.782 103.498 148.027C102.991 148.556 102.374 148.941 101.699 149.148C101.025 149.356 100.314 149.38 99.6284 149.219C99.5627 149.209 99.5027 149.173 99.4605 149.117C99.4184 149.061 99.3974 148.99 99.4017 148.918C99.4085 148.845 99.4412 148.778 99.4929 148.732C99.5445 148.686 99.6108 148.664 99.6773 148.67Z" fill="white"/>
<path d="M254.312 40.9234H38.7755C38.4561 40.9238 38.1397 40.8554 37.8445 40.7223C37.5493 40.5892 37.281 40.3938 37.055 40.1474C36.8289 39.901 36.6497 39.6084 36.5273 39.2863C36.405 38.9642 36.342 38.6189 36.342 38.2702C36.342 37.9216 36.405 37.5763 36.5273 37.2542C36.6497 36.9321 36.8289 36.6395 37.055 36.3931C37.281 36.1467 37.5493 35.9513 37.8445 35.8182C38.1397 35.685 38.4561 35.6167 38.7755 35.6171H254.312C254.632 35.6167 254.948 35.685 255.243 35.8182C255.539 35.9513 255.807 36.1467 256.033 36.3931C256.259 36.6395 256.438 36.9321 256.56 37.2542C256.683 37.5763 256.746 37.9216 256.746 38.2702C256.746 38.6189 256.683 38.9642 256.56 39.2863C256.438 39.6084 256.259 39.901 256.033 40.1474C255.807 40.3938 255.539 40.5892 255.243 40.7223C254.948 40.8554 254.632 40.9238 254.312 40.9234Z" fill="#E97462"/>
<path d="M254.312 51.4071H38.7754C38.1308 51.4071 37.5125 51.1276 37.0567 50.63C36.6008 50.1324 36.3447 49.4576 36.3447 48.7539C36.3447 48.0502 36.6008 47.3753 37.0567 46.8778C37.5125 46.3802 38.1308 46.1006 38.7754 46.1006H254.312C254.957 46.1006 255.575 46.3802 256.031 46.8778C256.487 47.3753 256.743 48.0502 256.743 48.7539C256.743 49.4576 256.487 50.1324 256.031 50.63C255.575 51.1276 254.957 51.4071 254.312 51.4071Z" fill="#E97462"/>
<path d="M212.091 61.8909H38.7754C38.1308 61.8909 37.5125 61.6114 37.0567 61.1138C36.6008 60.6162 36.3447 59.9413 36.3447 59.2377C36.3447 58.534 36.6008 57.8591 37.0567 57.3615C37.5125 56.864 38.1308 56.5844 38.7754 56.5844H212.091C212.735 56.5844 213.354 56.864 213.81 57.3615C214.265 57.8591 214.521 58.534 214.521 59.2377C214.521 59.9413 214.265 60.6162 213.81 61.1138C213.354 61.6114 212.735 61.8909 212.091 61.8909Z" fill="#E97462"/>
<path d="M240.227 147.668C242.657 149.468 245.357 151.493 246.14 154.778C246.319 155.48 246.368 156.214 246.281 156.937C246.194 157.659 245.975 158.355 245.635 158.983C245.012 160.117 244.083 161.008 243.177 161.867C242.101 162.887 241.016 163.889 240.181 165.163C239.799 165.746 240.683 166.303 241.061 165.725C242.609 163.363 245.182 162.026 246.544 159.491C248.156 156.494 247.08 152.94 245.084 150.514C243.837 148.999 242.275 147.843 240.742 146.707C240.198 146.304 239.687 147.268 240.227 147.668Z" fill="#E6E7E8"/>
<path d="M248.722 147.668C251.151 149.468 253.851 151.493 254.634 154.778C254.814 155.48 254.862 156.214 254.776 156.937C254.689 157.659 254.469 158.355 254.13 158.983C253.506 160.117 252.578 161.008 251.672 161.867C250.596 162.887 249.511 163.889 248.676 165.163C248.293 165.746 249.177 166.303 249.556 165.725C251.104 163.363 253.677 162.026 255.039 159.491C256.65 156.494 255.575 152.94 253.578 150.514C252.332 148.999 250.77 147.843 249.236 146.707C248.692 146.304 248.182 147.268 248.722 147.668Z" fill="#E6E7E8"/>
<path d="M41.9128 147.668C39.4837 149.468 36.7835 151.493 36.0007 154.778C35.8207 155.48 35.7726 156.214 35.8593 156.937C35.946 157.659 36.1656 158.355 36.505 158.983C37.1284 160.117 38.0571 161.008 38.963 161.867C40.0393 162.887 41.124 163.889 41.959 165.163C42.3414 165.746 41.4577 166.303 41.0788 165.725C39.5308 163.363 36.9583 162.026 35.5959 159.491C33.9847 156.494 35.0599 152.94 37.0566 150.514C38.3027 148.999 39.8652 147.843 41.3984 146.707C41.9426 146.304 42.4532 147.268 41.9128 147.668Z" fill="#E6E7E8"/>
<path d="M33.4182 147.668C30.9891 149.468 28.2889 151.493 27.5061 154.778C27.3261 155.48 27.278 156.214 27.3647 156.937C27.4514 157.659 27.671 158.355 28.0104 158.983C28.6338 160.117 29.5625 161.008 30.4684 161.867C31.5446 162.887 32.6293 163.889 33.4643 165.163C33.8467 165.746 32.963 166.303 32.5842 165.725C31.0362 163.363 28.4636 162.026 27.1013 159.491C25.49 156.494 26.5653 152.94 28.562 150.514C29.8081 148.999 31.3706 147.843 32.9038 146.707C33.448 146.304 33.9585 147.268 33.4182 147.668Z" fill="#E6E7E8"/>
<path d="M127.12 109.15C131.498 109.15 135.047 105.276 135.047 100.497C135.047 95.7177 131.498 91.8436 127.12 91.8436C122.742 91.8436 119.192 95.7177 119.192 100.497C119.192 105.276 122.742 109.15 127.12 109.15Z" fill="#2F2E41"/>
<path d="M139.803 142.031C150.895 142.031 159.886 132.217 159.886 120.11C159.886 108.004 150.895 98.1891 139.803 98.1891C128.712 98.1891 119.721 108.004 119.721 120.11C119.721 132.217 128.712 142.031 139.803 142.031Z" fill="#2F2E41"/>
<path d="M141.465 142.026C150.478 142.026 157.784 134.051 157.784 124.213C157.784 114.374 150.478 106.399 141.465 106.399C132.452 106.399 125.146 114.374 125.146 124.213C125.146 134.051 132.452 142.026 141.465 142.026Z" fill="#9E616A"/>
<path d="M152.547 106.054C149.688 104.151 146.412 103.122 143.063 103.074C139.714 103.026 136.415 103.96 133.511 105.78C130.606 107.6 128.203 110.239 126.552 113.42C124.901 116.6 124.064 120.207 124.127 123.862C132.443 126.141 141.179 127.885 150.046 124.407L152.141 118.813L153.375 124.411C156.076 125.616 158.783 126.636 161.491 124.4C161.601 120.755 160.834 117.142 159.264 113.923C157.695 110.704 155.379 107.99 152.547 106.054Z" fill="#2F2E41"/>
<path d="M110.382 157.16H110.361C109.286 157.171 108.233 156.827 107.341 156.172C106.448 155.517 105.759 154.583 105.363 153.492C104.937 152.387 104.827 151.167 105.049 149.993C105.27 148.819 105.812 147.746 106.603 146.915L106.695 146.816C109.784 143.42 111.524 138.834 111.539 134.049C111.543 127.292 108.078 121.047 104.83 115.724L104.231 114.745C100.993 109.458 97.6459 103.992 96.7938 97.6953C95.8889 91.0078 98.2088 83.9491 102.704 79.7123C107.37 75.3148 114.404 74.1329 119.81 76.8382C125.413 79.6425 129.017 86.6286 128.194 93.0883L128.185 93.1553L126.216 95.0887L126.144 95.0827C121.481 94.6905 116.837 98.0437 115.336 102.875C114.326 106.128 114.689 109.692 115.232 113.059C116.383 120.19 118.319 127.143 120.996 133.768C121.132 134.105 121.269 134.442 121.409 134.782C122.969 138.596 124.583 142.54 123.965 146.625C122.988 153.081 116.71 156.859 111.299 157.136C110.993 157.152 110.687 157.16 110.382 157.16Z" fill="#2F2E41"/>
<path d="M181.375 209.493C176.971 213.862 172.042 217.556 166.724 220.471L165.599 216.517L164.692 220.371L165.045 221.357C164.654 221.558 164.26 221.75 163.866 221.94C163.53 222.103 163.193 222.262 162.857 222.418C150.539 228.067 136.933 229.469 123.863 226.439C123.52 226.361 123.18 226.279 122.841 226.194C121.356 225.823 119.888 225.393 118.441 224.914L120.466 216.695L118.665 206.759L113.976 223.23C108.653 220.981 103.624 217.979 99.0186 214.299C100.459 204.133 102.148 191.931 103.191 183.486C103.568 180.4 103.86 177.818 104.024 176.016C104.156 174.327 104.459 172.659 104.927 171.042C105.157 170.26 105.452 169.503 105.807 168.78C105.882 168.62 105.964 168.468 106.045 168.32C106.123 168.175 106.205 168.038 106.29 167.904C108.376 164.511 111.054 164.718 111.054 164.718L119.045 163.016L121.543 162.482L122.559 162.267L123.802 162C124.752 161.798 125.653 161.38 126.446 160.775C127.239 160.169 127.907 159.389 128.406 158.484L131.801 152.331C132.52 151.03 133.581 149.995 134.845 149.36C134.998 149.286 135.154 149.215 135.311 149.148C136.001 148.866 136.728 148.707 137.465 148.677L142.269 148.473L144.213 148.388L146.867 148.277C147.493 148.25 148.119 148.317 148.729 148.477H148.732C148.946 148.533 149.15 148.596 149.357 148.674C150.963 149.265 152.313 150.479 153.153 152.086L155.524 156.626C156.058 157.647 156.802 158.518 157.698 159.17C158.594 159.822 159.617 160.237 160.686 160.383L161.596 160.505L162.619 160.646L165.205 160.998L169.928 161.644L169.938 161.84C170.842 161.918 173.417 162.497 175.143 166.514C175.259 166.777 175.368 167.059 175.473 167.352C176.077 169.133 176.463 170.994 176.618 172.885C176.628 172.967 176.635 173.049 176.642 173.13C177.219 179.558 179.459 195.948 181.375 209.493Z" fill="#2F2E41"/>
<path d="M142.894 226.301L142.572 227.944L141.576 227.711L141.873 226.204C142.807 221.449 143.229 216.591 143.13 211.729L141.879 150.257L141.855 149.152L141.841 148.481L142.358 148.47L142.861 148.459L142.912 151.01L144.149 211.839C144.248 216.697 143.827 221.55 142.894 226.301Z" fill="#E97462"/>
<path d="M102.96 185.325L117.292 187.461L118.294 187.61L118.906 187.702L118.835 188.259L118.763 188.804L116.446 188.459L102.821 186.427L102.96 185.325Z" fill="#E97462"/>
<path d="M145.732 149.497L144.213 148.388L142.358 148.47L142.27 148.473L141.855 149.152L141.879 150.257L142.912 151.01L144.22 151.963C144.368 152.072 144.535 152.148 144.71 152.187C144.885 152.225 145.066 152.226 145.241 152.188C145.417 152.151 145.584 152.075 145.732 151.967C145.881 151.859 146.009 151.72 146.109 151.558C146.208 151.395 146.277 151.213 146.312 151.022C146.347 150.83 146.347 150.633 146.312 150.442C146.277 150.251 146.208 150.069 146.108 149.906C146.009 149.744 145.881 149.605 145.732 149.497ZM145.542 151.144C145.467 151.266 145.36 151.36 145.236 151.416C145.112 151.472 144.975 151.486 144.843 151.458C144.712 151.429 144.591 151.358 144.496 151.254C144.401 151.15 144.336 151.018 144.31 150.874C144.284 150.73 144.298 150.581 144.349 150.445C144.401 150.31 144.488 150.194 144.6 150.113C144.711 150.031 144.843 149.988 144.977 149.988C145.112 149.988 145.243 150.031 145.355 150.113C145.504 150.223 145.608 150.393 145.643 150.586C145.678 150.779 145.642 150.98 145.542 151.144Z" fill="#E97462"/>
</g>
<defs>
<clipPath id="clip0_81_68">
<rect width="275" height="228" fill="white"/>
</clipPath>
</defs>
</svg>
